<svg width="235" height="62" viewBox="0 0 235 62" fill="none" xmlns="http://www.w3.org/2000/svg">
<rect x="0.583008" width="234" height="62" rx="15" fill="#FEF3F7" fill-opacity="0.3"/>
<path d="M33.955 26.408C33.939 26.488 33.939 26.568 33.939 26.68C33.939 27.048 34.035 27.544 34.035 27.784C34.035 28.056 33.955 28.824 33.955 29.32C33.955 29.736 33.987 29.976 33.987 30.2C33.987 30.616 33.923 30.84 33.923 31.016C33.923 31.144 33.907 31.368 33.907 31.576C33.907 31.64 33.907 31.752 33.923 31.8C33.955 31.912 33.955 32.04 33.955 32.152C33.955 32.424 33.923 32.68 33.923 32.888C33.923 33.176 33.955 33.352 33.955 33.528C33.955 33.8 34.035 34.056 34.035 34.488C33.971 34.664 33.971 34.824 33.971 34.952C33.971 35.16 33.987 35.368 33.987 35.624C33.987 36.072 33.875 36.312 33.875 36.36V36.744C33.875 36.936 33.891 37.032 34.051 37.032C34.147 37.032 34.227 37.048 34.291 37.096C34.355 37.128 34.323 37.144 34.483 37.144C34.803 37.144 35.043 37.096 35.299 37.096C35.843 37.096 36.387 37 36.755 37C37.171 37 37.907 36.952 38.179 36.952C38.371 36.952 38.483 37 38.771 37C38.899 37 39.027 36.984 39.107 36.968C39.459 36.872 39.843 36.696 40.243 36.456C40.675 36.168 40.963 35.816 41.139 35.4C41.331 34.968 41.427 34.728 41.507 34.12C41.539 33.848 41.539 33.688 41.539 33.544C41.539 33.208 41.491 32.936 41.379 32.696C40.979 31.688 40.723 31.592 39.779 31.16C39.587 31.112 39.491 31.032 39.491 30.936C39.491 30.888 39.731 30.76 39.795 30.712C40.099 30.488 40.499 30.168 40.659 29.672C40.819 29.176 40.819 28.648 40.819 28.296C40.803 27.448 40.019 26.952 39.459 26.568C39.235 26.488 38.579 26.168 38.051 26.168C37.507 26.216 37.571 26.232 37.059 26.264H36.659C36.307 26.264 36.003 26.264 35.667 26.296C35.539 26.328 35.443 26.344 35.331 26.344C35.203 26.344 34.963 26.328 34.771 26.328C34.627 26.328 34.435 26.216 34.323 26.2C33.971 26.2 33.971 26.232 33.955 26.408ZM35.859 27C35.923 26.888 36.019 26.856 36.179 26.856C36.339 26.856 36.499 26.888 36.659 26.888C36.723 26.888 36.787 26.888 36.803 26.872C37.011 26.856 37.219 26.84 37.507 26.84C38.179 26.84 38.787 26.952 39.091 27.08C39.427 27.24 39.715 27.592 39.827 27.832C39.923 28.056 39.939 28.264 39.939 29.016C39.939 29.544 39.747 29.56 39.667 29.832C39.571 30.056 39.091 30.584 38.851 30.68C38.739 30.712 38.451 30.984 37.987 31.032C37.859 31.032 37.731 31.032 37.603 31.032C37.267 31.032 37.011 31.016 36.883 31.016C36.659 31.016 36.499 31.032 36.355 31.032C36.115 31.032 35.907 31.016 35.843 30.968C35.811 30.952 35.795 30.872 35.795 30.744C35.795 30.6 35.811 30.424 35.843 30.248V30.024C35.843 29.592 35.795 29.096 35.795 27.864C35.795 27.64 35.779 27.48 35.779 27.368C35.779 27.224 35.795 27.128 35.859 27ZM35.667 31.992C35.667 31.752 35.923 31.768 36.243 31.72C36.435 31.656 36.547 31.656 36.707 31.656C37.411 31.656 37.507 31.688 37.587 31.688C37.683 31.688 37.795 31.656 38.003 31.624L38.499 31.656C38.819 31.656 39.667 31.688 39.891 31.976C40.099 32.248 40.467 32.264 40.627 32.696C40.787 33.096 40.707 33.192 40.771 33.64C40.771 33.72 40.723 34.312 40.723 34.344C40.691 34.584 40.515 34.888 40.387 35.144C40.291 35.48 39.891 35.784 39.571 35.976C38.947 36.36 38.467 36.36 38.099 36.36C38.003 36.36 38.067 36.408 37.139 36.408C36.755 36.408 36.275 36.52 36.035 36.52C35.987 36.52 35.939 36.52 35.923 36.504C35.843 36.504 35.843 36.424 35.843 36.344C35.843 36.216 35.859 36.04 35.859 35.784C35.859 35.32 35.811 34.984 35.795 34.632C35.779 34.264 35.731 33.848 35.731 33.336C35.731 32.824 35.731 32.344 35.667 31.992ZM33.139 26.2C33.299 26.2 33.539 26.6 33.539 27.048C33.539 27.128 33.539 27.192 33.523 27.272C33.507 27.384 33.491 27.512 33.491 27.624C33.491 27.912 33.539 28.168 33.539 28.44C33.539 28.488 33.539 28.584 33.523 28.632C33.491 28.824 33.475 29.016 33.475 29.224C33.475 29.448 33.491 29.624 33.491 29.832C33.491 30.2 33.459 30.424 33.459 30.888C33.459 31.176 33.491 31.576 33.491 31.944C33.491 32.136 33.475 32.328 33.459 32.52C33.427 32.68 33.427 32.808 33.427 32.904C33.427 33.16 33.459 33.32 33.459 33.512C33.427 33.832 33.427 33.944 33.427 34.056C33.427 34.328 33.459 34.552 33.459 34.936C33.459 35.416 33.507 35.608 33.507 35.928C33.507 35.992 33.491 36.072 33.491 36.184C33.475 36.36 33.475 36.488 33.475 36.584C33.475 36.792 33.475 36.936 33.379 37C33.331 37.064 33.139 37.144 32.995 37.144C32.867 37.144 32.755 37.096 32.739 36.936C32.739 36.872 32.723 36.808 32.723 36.712C32.723 36.392 32.771 35.912 32.803 35.704C32.803 35.64 32.819 35.576 32.819 35.496C32.819 35.224 32.771 34.824 32.771 34.504C32.771 34.216 32.819 33.928 32.819 33.656C32.819 33.56 32.819 33.48 32.803 33.368C32.787 33.336 32.787 33.288 32.787 33.208C32.787 32.936 32.899 32.616 32.899 32.36C32.899 32.12 32.899 31.96 32.899 31.8C32.899 31.656 32.899 31.528 32.883 31.4C32.851 31.128 32.803 30.344 32.803 29.864C32.803 28.872 32.867 28.456 32.867 28.088C32.867 27.96 32.867 27.832 32.851 27.688C32.803 27.432 32.787 27.272 32.787 27.144C32.787 27 32.803 26.872 32.851 26.6C32.899 26.264 32.963 26.232 33.139 26.2ZM51.5923 26.424C51.5923 26.248 51.4963 26.2 51.3683 26.2C51.2403 26.2 51.0963 26.248 50.9683 26.248C50.8403 26.248 50.6323 26.184 50.4883 26.184C50.3763 26.184 50.2963 26.232 50.2963 26.344C50.2963 26.856 50.5523 27.576 50.5523 27.816C50.5523 28.104 50.5523 28.6 50.5843 29.096C50.6163 29.576 50.6483 31.096 50.6483 31.56C50.6483 32.152 50.5843 32.616 50.5363 33.176C50.4403 33.8 50.2963 34.44 50.0083 34.84C49.7043 35.256 49.5283 35.64 49.1443 35.832C48.8083 35.992 48.3123 36.168 48.0243 36.168C47.7203 36.12 47.5603 36.104 47.2723 36.088C46.9843 36.072 46.5683 35.976 46.4083 35.768C46.2643 35.576 46.0883 35.432 45.9763 35.224C45.9123 35.048 45.7523 34.2 45.7523 33.416C45.7523 32.616 45.7683 32.216 45.7683 31.32C45.7683 31.08 45.7843 30.92 45.7843 30.68C45.7843 30.52 45.7843 30.312 45.7523 30.008C45.6883 29.352 45.5763 28.872 45.5763 28.472C45.5763 28.328 45.5763 28.232 45.6243 28.104C45.6883 27.992 45.6883 27.896 45.6883 27.784C45.6883 27.608 45.6403 27.448 45.6403 27.336C45.6403 27.208 45.8963 26.76 45.8963 26.376C45.8963 26.216 45.7683 26.168 45.5603 26.168C45.4803 26.168 45.4003 26.168 45.2883 26.184C45.2563 26.184 45.2243 26.2 45.1763 26.2C45.0323 26.216 44.9203 26.216 44.8083 26.216C44.4403 26.216 44.6483 26.168 44.1523 26.168C43.7203 26.168 43.6403 26.328 43.6403 26.424C43.6403 26.952 43.6723 27.512 43.6723 27.912C43.6723 28.168 43.6723 28.472 43.6723 28.696C43.6723 28.776 43.6563 28.872 43.6563 29.016C43.6563 29.496 43.7203 30.152 43.7203 30.808C43.7203 31.48 43.6403 31.928 43.6403 32.312C43.6403 32.472 43.6563 32.616 43.6883 32.76C43.7683 32.92 43.7843 33.192 43.7843 33.848C43.7843 34.04 43.7843 34.2 43.8163 34.504C43.8163 34.632 43.8003 34.808 43.8003 35C43.8003 35.336 43.8323 35.704 44.0723 36.008C44.4403 36.504 44.9363 36.856 45.8643 37C46.1203 37.048 46.3763 37.064 46.6163 37.064C47.0963 37.064 47.5283 37 47.8003 37C48.3603 37 48.6323 36.936 48.7763 36.872C49.0163 36.792 49.5603 36.52 49.8643 36.168C50.1203 35.784 50.5043 35.576 50.7603 34.984C51.0003 34.456 51.1283 33.72 51.3043 32.968C51.3523 32.712 51.3683 32.44 51.3683 32.12C51.3683 31.56 51.3203 30.92 51.3203 30.344C51.3683 29.72 51.3683 29.112 51.3683 28.584C51.3683 28.008 51.4003 27.512 51.4803 27.288C51.4803 27.288 51.5923 26.456 51.5923 26.424ZM43.2563 34.776C43.2563 34.056 43.2563 33.88 43.2723 33.656C43.2723 33.256 43.1603 33.096 43.1603 32.744C43.1603 32.664 43.1603 32.616 43.1763 32.52C43.2083 32.328 43.2243 32.136 43.2243 31.944C43.2243 31.56 43.1763 31.176 43.1763 30.888C43.1763 30.424 43.2243 30.2 43.2243 29.832C43.2243 29.64 43.2083 29.432 43.2083 29.224C43.2083 29.016 43.2243 28.824 43.2563 28.632C43.2723 28.584 43.2723 28.52 43.2723 28.456C43.2723 28.216 43.2243 27.944 43.2243 27.656C43.2243 27.528 43.2403 27.4 43.2563 27.272C43.2723 27.208 43.2723 27.144 43.2723 27.096C43.2723 26.648 43.0323 26.2 42.8723 26.2C42.6963 26.2 42.5843 26.28 42.5363 26.6C42.5203 26.856 42.5043 26.952 42.5043 27.112C42.5043 27.24 42.5203 27.416 42.5363 27.688C42.5523 27.832 42.5683 27.944 42.5683 28.072C42.5683 28.472 42.5043 28.872 42.5043 29.864C42.5043 30.344 42.5363 31.128 42.5683 31.4C42.5843 31.528 42.5843 31.656 42.5843 31.8C42.5843 31.944 42.5843 32.12 42.6163 32.376C42.6163 32.616 42.5363 32.904 42.5363 33.16C42.5363 33.24 42.5523 33.336 42.5683 33.4C42.6483 33.768 42.6643 34.088 42.6643 34.488C42.6643 34.872 42.8403 35.608 43.2723 35.608C43.3203 35.608 43.3363 35.56 43.3363 35.48C43.3363 35.288 43.2563 34.952 43.2563 34.776ZM62.5593 36.776C62.5593 36.488 62.3033 36.424 62.1113 36.2C61.8553 35.912 61.5993 35.784 61.5353 35.432C61.4873 35.096 61.2633 34.2 61.1353 33.88C61.0073 33.512 60.9913 33.304 60.8473 33.128C60.7193 32.936 60.3833 32.6 60.2233 32.392C59.7113 31.832 59.6793 31.816 59.5193 31.752C59.5193 31.768 59.9673 31.464 60.2233 31.32C60.4953 31.176 60.8633 30.744 61.0873 30.392C61.2473 30.024 61.5353 29.416 61.5353 29.048C61.5353 28.664 61.5033 27.816 61.3273 27.544C61.1193 27.24 60.8633 26.712 60.4473 26.552C60.0953 26.424 59.4553 26.184 58.7033 26.184H57.2153C57.1193 26.184 56.9913 26.184 56.8473 26.2C56.3193 26.248 55.7753 26.264 55.3273 26.264C55.1993 26.264 55.0553 26.264 54.9113 26.248C54.7353 26.232 54.6233 26.2 54.4953 26.2C54.3993 26.2 54.3033 26.232 54.1433 26.328C54.0473 26.408 53.9993 26.696 53.9993 27.032C53.9993 27.64 54.0953 28.44 54.0953 28.728C54.0953 28.824 54.0953 28.936 54.0473 29.016C54.0313 29.304 54.0153 29.592 54.0153 29.928C54.0153 30.152 54.0313 30.344 54.0313 30.568C54.0473 31.016 54.0473 31.192 54.0473 31.512C54.0473 31.96 54.0953 32.44 54.0953 33.048C54.0793 33.32 54.0793 33.656 54.0793 34.024C54.0793 34.744 54.0953 35.512 54.0953 35.736C54.0953 35.912 54.1113 35.944 54.1113 36.008C54.1113 36.184 54.0473 36.408 54.0473 36.888C54.0473 37.048 54.4793 37.144 54.9113 37.144C55.0393 37.144 55.1353 37.128 55.1993 37.128C55.5033 37.096 55.9033 37.096 56.0793 37.048C56.2393 37.016 56.4153 36.872 56.4153 36.632C56.3673 36.456 56.3673 36.328 56.2713 36.12C56.2233 36.008 56.2233 35.832 56.2233 35.624V34.984C56.2233 34.488 56.2073 34.328 56.1913 33.752C56.1593 33.368 56.0793 33.144 56.0793 32.92C56.0793 32.84 56.0793 32.76 56.1273 32.68C56.2873 32.408 56.4793 32.296 56.6873 32.296C57.0233 32.296 56.9913 32.264 57.1513 32.264C57.2793 32.264 57.6153 32.296 57.7753 32.392C58.2233 32.616 58.2873 32.712 58.5113 33.176C58.6873 33.544 58.9913 33.816 59.1673 34.648C59.2153 34.856 59.4233 35.832 59.5193 36.088C59.5353 36.344 59.8073 36.936 60.0633 37.016C60.1273 37.048 60.2393 37.064 60.3673 37.064C60.6553 37.064 61.0393 37 61.3113 37C61.6313 37 61.7433 37.048 62.0313 37.048C62.1433 37.048 62.2553 37.064 62.3353 37.064C62.4793 37.064 62.5593 37.016 62.5593 36.776ZM56.2233 26.952C56.2553 26.776 56.8313 26.824 57.2953 26.776C57.8713 26.776 59.2953 26.776 59.6793 27C60.0793 27.24 60.3033 27.384 60.4313 27.896C60.4633 28.072 60.5433 28.36 60.5433 28.728C60.5433 28.872 60.5273 29.016 60.5113 29.16C60.4793 29.416 60.3193 30.024 60.0473 30.456C59.7753 30.888 59.0873 31.032 58.6553 31.352C58.3193 31.592 57.6793 31.56 57.3593 31.608C57.2793 31.624 57.1353 31.64 56.9913 31.64C56.7833 31.64 56.5913 31.624 56.4473 31.624C56.3513 31.624 56.2713 31.608 56.2713 31.576V31.304C56.2713 30.968 56.2873 30.408 56.3193 30.104C56.3193 30.056 56.3353 29.992 56.3353 29.88C56.3353 29.4 56.2233 28.536 56.2073 28.008C56.1913 27.816 56.1913 27.736 56.1913 27.592C56.1913 27.272 56.2073 27.048 56.2233 26.952ZM53.2793 26.2C53.4553 26.2 53.6953 26.6 53.6953 27.032C53.6953 27.112 53.6793 27.192 53.6633 27.272C53.6313 27.4 53.6153 27.528 53.6153 27.656C53.6153 27.944 53.6793 28.232 53.6793 28.456C53.6793 28.52 53.6793 28.584 53.6633 28.632C53.6313 28.808 53.6153 28.984 53.6153 29.16C53.6153 29.384 53.6313 29.608 53.6313 29.832C53.6313 30.2 53.5993 30.424 53.5993 30.888C53.5993 31.176 53.6153 31.56 53.6153 31.944C53.6153 32.136 53.6153 32.328 53.5993 32.52C53.5833 32.664 53.5673 32.776 53.5673 32.888C53.5673 33.128 53.6153 33.272 53.6153 33.496C53.6153 33.56 53.5993 33.624 53.5993 33.688C53.5833 33.832 53.5833 33.96 53.5833 34.072C53.5833 34.328 53.5993 34.552 53.5993 34.936C53.5993 35.448 53.6313 35.624 53.6313 35.944V36.184C53.5993 36.68 53.6633 36.856 53.5193 37C53.4553 37.08 53.2953 37.144 53.1513 37.144C53.0233 37.144 52.8953 37.08 52.8793 36.936C52.8793 36.424 52.9113 35.912 52.9433 35.704C52.9593 35.64 52.9593 35.56 52.9593 35.48C52.9593 35.192 52.9113 34.808 52.9113 34.504C52.9113 34.216 52.9753 33.928 52.9753 33.656C52.9753 33.56 52.9593 33.48 52.9433 33.368C52.9273 33.32 52.9273 33.272 52.9273 33.208C52.9273 32.936 53.0553 32.632 53.0553 32.376C53.0553 32.344 53.0393 32.312 53.0393 32.28C53.0393 32.12 53.0393 31.944 53.0393 31.8C53.0393 31.656 53.0393 31.528 53.0233 31.4C52.9913 31.128 52.9433 30.344 52.9433 29.864C52.9433 28.856 53.0073 28.44 53.0073 28.04C53.0073 27.928 53.0073 27.816 52.9913 27.688C52.9593 27.416 52.9433 27.24 52.9433 27.112C52.9433 26.952 52.9593 26.856 52.9913 26.648C53.0393 26.264 53.1033 26.232 53.2793 26.2ZM72.9156 26.552C72.8996 26.408 72.9796 26.232 72.5956 26.232C72.4036 26.232 72.0996 26.248 71.9556 26.248C71.6836 26.248 71.6196 26.28 71.6196 26.52C71.6196 26.84 71.8756 27.24 71.8756 27.608C71.8756 27.912 71.9556 28.504 71.9556 29.416C71.9556 29.848 72.0036 30.248 72.0036 30.68C72.0036 31.16 72.0356 31.32 72.0676 31.896C72.0996 32.248 72.1156 32.488 72.1156 32.744C72.1156 32.84 72.1156 32.968 72.0996 33.064C72.0356 33.48 72.0196 33.816 72.0196 33.816C72.0196 33.816 71.5876 33.192 71.2996 32.872C70.9796 32.584 70.7876 32.28 70.4036 31.912C70.0196 31.576 69.4116 30.856 69.1556 30.536C68.9316 30.232 68.5636 29.784 68.2756 29.496C67.9876 29.208 67.6356 28.616 67.2836 28.152C66.9636 27.704 66.6436 27.448 66.3876 27.08C66.0996 26.712 66.0516 26.424 65.7476 26.376C65.7316 26.376 65.7156 26.36 65.6996 26.36C65.4756 26.296 65.2356 26.248 64.9636 26.248C64.8516 26.264 64.8196 26.264 64.7716 26.264H64.6596C64.5156 26.28 64.4836 26.376 64.4836 26.664C64.4836 27.016 64.5316 27.608 64.5316 27.8C64.5796 27.96 64.5796 28.28 64.5796 28.632V29.576C64.5796 29.976 64.5316 30.584 64.5316 30.968V31.144C64.5796 31.608 64.5796 31.832 64.5796 32.248C64.5796 32.6 64.6116 33.096 64.6116 33.576C64.6116 33.704 64.5956 33.832 64.5956 34.168V36.328C64.5636 36.536 64.5636 36.68 64.5636 36.872C64.5636 37.032 64.7076 37.064 64.8516 37.064H65.2996C65.5076 37.064 65.5716 37 65.5716 36.648C65.5716 36.328 65.4596 36.088 65.3796 35.56C65.3796 35.352 65.3956 34.952 65.3956 34.888C65.3956 34.552 65.3316 34.152 65.3316 33.704C65.3316 33.224 65.2516 32.92 65.2516 32.584C65.2516 32.248 65.2836 32.136 65.2836 32.056C65.2836 31.752 65.2516 31.512 65.2356 31.032C65.2196 30.76 65.1556 30.456 65.1556 30.168C65.1556 30.056 65.1716 29.96 65.1876 29.88C65.2036 29.848 65.2036 29.8 65.2036 29.752V29.64C65.2036 29.544 65.2036 29.448 65.2516 29.448C65.3956 29.448 65.6356 29.784 65.7956 29.976C66.0676 30.296 66.2436 30.68 66.4036 30.888C66.5636 31.112 67.0756 31.608 67.3796 31.96C67.6836 32.28 67.7796 32.568 68.1316 32.984C68.4516 33.368 68.6596 33.528 69.1236 33.896C69.5556 34.312 69.9556 34.92 70.2596 35.208C70.5636 35.512 70.8516 35.912 71.1236 36.072C71.4436 36.232 71.7796 37.048 72.0356 37.16C72.0996 37.176 72.1476 37.192 72.2116 37.192C72.4516 37.192 72.6916 37.112 72.7716 36.968C72.8356 36.872 72.8516 36.632 72.8516 36.36C72.8516 36.168 72.8356 35.976 72.8196 35.88C72.8356 35.544 72.8356 35.24 72.8356 34.952C72.7716 34.648 72.6916 34.04 72.6916 33.736C72.6916 33.064 72.7236 32.44 72.7236 31.784C72.7236 31.464 72.7396 31.112 72.7396 30.696C72.7396 30.328 72.7236 30.024 72.7236 29.72C72.7236 29.176 72.8356 28.728 72.8356 28.312C72.8356 27.624 72.9316 26.936 72.9316 26.648C72.9316 26.6 72.9156 26.568 72.9156 26.552ZM63.8116 26.2C63.5876 26.232 63.5236 26.264 63.4756 26.648C63.4436 26.856 63.4276 26.952 63.4276 27.112C63.4276 27.24 63.4436 27.416 63.4756 27.688C63.4916 27.816 63.4916 27.928 63.4916 28.04C63.4916 28.44 63.4276 28.856 63.4276 29.864C63.4276 30.344 63.4756 31.128 63.5076 31.4C63.5236 31.528 63.5236 31.656 63.5236 31.8C63.5236 31.944 63.5236 32.12 63.5236 32.28C63.5236 32.312 63.5396 32.344 63.5396 32.376C63.5396 32.632 63.4116 32.936 63.4116 33.208C63.4116 33.272 63.4116 33.32 63.4276 33.368C63.4436 33.48 63.4596 33.56 63.4596 33.656C63.4596 33.928 63.3956 34.216 63.3956 34.504C63.3956 34.808 63.4436 35.192 63.4436 35.48C63.4436 35.56 63.4436 35.64 63.4276 35.704C63.3956 35.912 63.3636 36.424 63.3636 36.936C63.3796 37.08 63.5076 37.144 63.6356 37.144C63.7796 37.144 63.9396 37.08 64.0036 37C64.1476 36.856 64.0836 36.68 64.1156 36.184C64.1156 35.624 64.0836 35.448 64.0836 34.936C64.0836 34.552 64.0676 34.328 64.0676 34.072C64.0676 33.96 64.0676 33.832 64.0836 33.688C64.0836 33.624 64.0996 33.56 64.0996 33.496C64.0996 33.272 64.0516 33.128 64.0516 32.888C64.0516 32.776 64.0676 32.664 64.0836 32.52C64.0996 32.328 64.0996 32.136 64.0996 31.944C64.0996 31.56 64.0836 31.176 64.0836 30.888C64.0836 30.424 64.1156 30.2 64.1156 29.832C64.1156 29.608 64.0996 29.384 64.0996 29.16C64.0996 28.984 64.1156 28.808 64.1476 28.632C64.1476 28.584 64.1636 28.536 64.1636 28.472C64.1636 28.152 64.0836 27.64 64.0836 27.224C64.0836 27.08 64.0996 26.952 64.1156 26.84C64.1316 26.76 64.1316 26.696 64.1316 26.632C64.1316 26.312 63.9556 26.2 63.8116 26.2ZM77.5354 36.776C77.5514 37.016 77.6634 37.08 77.8074 37.08C77.9674 37.08 78.1594 37 78.3354 36.968C78.4154 36.952 78.6074 36.84 78.7194 36.84C79.0074 36.84 79.1194 36.856 79.3594 36.888H79.4394C79.5194 36.904 79.6154 36.92 79.6794 36.92C79.8554 36.92 79.9994 36.84 79.9994 36.616C79.9994 36.568 79.9994 36.52 79.9834 36.488C79.9514 36.2 79.7274 36.04 79.7274 35.464C79.7274 35.208 79.7914 34.984 79.7914 34.68C79.7914 34.552 79.7914 34.376 79.7434 34.184C79.6474 33.656 79.5834 33 79.5834 32.216C79.5834 31.432 79.5674 30.488 79.5354 29.88C79.5194 29.72 79.5194 29.496 79.5194 29.272V27.8C79.5194 27.72 79.5034 27.624 79.5034 27.56C79.5034 27.224 79.5674 27.032 79.7594 27C79.8234 26.952 79.9354 26.952 80.0154 26.952C80.2234 26.952 80.4474 27 80.7834 27.016C81.2314 27.048 81.4554 27.288 81.7594 27.288C81.9674 27.288 82.1754 26.712 82.1754 26.456C82.1434 26.248 82.0794 26.2 81.6954 26.2C81.1994 26.216 81.0554 26.392 80.7834 26.392C80.7034 26.392 80.6554 26.392 80.6234 26.376C80.2874 26.296 80.0634 26.296 79.5034 26.296C78.9114 26.296 78.2394 26.392 77.7914 26.392C77.4874 26.392 77.4874 26.424 77.4874 26.888C77.4874 27.24 77.5354 27.16 77.5354 27.304C77.5354 27.368 77.5194 27.448 77.5034 27.576C77.4554 28.088 77.3754 28.424 77.3754 28.792C77.3754 29.08 77.4074 29.336 77.4074 29.56C77.4074 29.64 77.4074 29.72 77.3914 29.784C77.3914 29.992 77.5994 30.312 77.5994 30.6C77.5994 30.648 77.5994 30.696 77.5834 30.744C77.4874 31.096 77.4874 31.32 77.4554 31.72C77.4394 31.784 77.4394 31.88 77.4394 31.976C77.4394 32.312 77.4874 32.728 77.4874 33.128V34.968C77.4874 34.968 77.5034 36.232 77.5354 36.776ZM76.0314 26.328C75.9354 26.328 75.9034 26.36 75.8074 26.376C75.6154 26.392 75.4074 26.408 75.2314 26.408C74.9594 26.408 74.4474 26.232 74.3514 26.216C74.3194 26.216 74.3194 26.2 74.2874 26.2C74.1274 26.2 73.9834 26.312 73.8874 26.552C73.7594 26.792 73.7274 26.968 73.7274 27.08C73.7274 27.24 73.8074 27.288 73.8874 27.288H74.1754C74.2714 27.288 74.3514 27.288 74.3834 27.272C74.4634 27.24 74.7674 27.16 75.0874 27.16C75.4074 27.16 75.7754 27.016 75.9514 27.016C76.2874 27.016 76.2714 27.288 76.3354 27.512C76.3354 27.624 76.3354 27.832 76.3354 28.088C76.3354 28.312 76.3354 28.584 76.3514 28.808C76.3674 28.936 76.3674 29.032 76.3674 29.144C76.3674 29.352 76.3514 29.528 76.3514 29.736C76.3674 30.344 76.3834 30.632 76.3834 31.048C76.3674 31.512 76.3674 31.72 76.3674 31.896C76.3674 32.488 76.4154 33.224 76.4154 33.72C76.4154 34.792 76.4154 34.968 76.3834 35.144C76.3354 35.624 76.2874 36.68 76.2874 36.968C76.2874 37.08 76.4314 37.128 76.5914 37.128C76.7994 37.128 77.0554 37.064 77.0554 36.952C77.0554 36.824 77.0394 36.728 77.0394 36.568C77.0394 36.488 77.0394 36.392 77.0554 36.28C77.0554 36.216 77.0554 36.136 77.0554 36.024C77.0554 35.576 77.0234 34.776 77.0234 34.36C77.0234 34.008 77.1034 33.64 77.1034 33.336C77.1034 33.208 77.0874 33.096 77.0554 33.016C77.0074 32.904 76.9754 32.776 76.9754 32.648C76.9754 32.44 77.0234 32.184 77.0234 31.928C77.0234 31.448 77.0714 31.144 77.0714 30.824C77.0714 30.712 77.0554 30.584 77.0554 30.456C77.0234 30.216 77.0234 29.992 77.0234 29.736C77.0234 29.496 77.0234 29.272 76.9914 29.016C76.9754 28.904 76.9594 28.808 76.9594 28.712C76.9594 28.312 77.0714 27.96 77.0714 27.688C77.0714 27.336 77.0554 27 77.0554 26.696C77.0554 26.376 76.9114 26.28 76.7194 26.28C76.4794 26.28 76.2394 26.328 76.0314 26.328ZM84.701 36.824C84.845 36.936 85.389 37.064 85.613 37.144C85.805 37.192 86.653 37.272 87.293 37.272C87.949 37.272 88.893 36.936 89.197 36.664C89.533 36.376 89.965 36.088 90.109 35.864C90.221 35.576 90.237 35.544 90.461 35.32C90.621 35.064 90.669 35.032 90.749 34.664C90.909 33.88 90.941 33.4 90.941 32.968V32.52C90.941 32.264 90.989 32.232 91.085 32.232C91.181 32.232 91.309 32.264 91.437 32.264C91.709 32.248 91.949 32.344 91.949 32.04C91.949 31.752 91.805 31.528 91.581 31.528C91.549 31.528 91.469 31.528 91.421 31.544C91.053 31.608 90.701 31.608 90.365 31.608C90.189 31.608 90.045 31.592 89.709 31.592C89.389 31.592 89.085 31.704 89.085 32.04C89.085 32.12 89.133 32.136 89.261 32.2C89.405 32.2 89.613 32.216 89.821 32.216C90.077 32.216 90.301 32.264 90.301 32.648C90.301 33.368 90.237 34.28 89.949 34.856C89.821 35.176 89.357 35.608 89.037 35.944C88.797 36.168 88.461 36.376 88.205 36.504C87.933 36.664 87.661 36.664 87.069 36.664C86.269 36.664 85.757 36.52 85.517 35.848C85.405 35.56 85.469 34.728 85.405 34.632C85.389 34.504 85.405 34.088 85.309 33.864C85.293 33.816 85.277 33.752 85.277 33.688C85.277 33.416 85.357 33.032 85.357 32.648C85.357 31.944 85.405 31.384 85.741 31.064C86.093 30.696 86.445 30.52 87.101 30.52C87.437 30.52 87.821 30.52 87.821 30.184C87.821 29.88 87.661 29.848 87.293 29.848C86.813 29.848 86.493 29.752 86.317 29.352C86.253 29.192 86.317 28.52 86.237 28.088C86.189 27.912 86.189 27.704 86.189 27.48C86.189 27.112 86.237 26.728 86.269 26.44C86.301 26.056 86.509 25.816 86.749 25.656C87.245 25.384 87.101 25.352 87.293 25.352C87.933 25.352 88.301 25.4 88.429 25.416C88.605 25.464 88.797 25.832 88.941 26.104C89.021 26.344 88.989 26.52 89.085 26.76C89.149 26.936 89.245 26.952 89.309 26.952C89.453 26.952 89.613 26.824 89.757 26.76C89.901 26.712 90.045 26.552 90.045 26.392C89.981 26.104 89.821 25.736 89.693 25.544C89.277 24.984 88.493 24.824 87.741 24.792C87.373 24.792 86.365 24.936 85.597 25.272C85.325 25.384 85.085 25.528 84.877 25.704C84.669 25.88 84.701 26.104 84.701 26.488C84.701 26.872 84.653 27.144 84.653 27.432C84.653 27.72 84.685 28.088 84.717 28.344C84.749 28.6 84.749 28.968 84.749 29.128C84.749 29.288 84.685 29.48 84.909 29.656C85.069 29.8 86.269 30.232 86.269 30.232C86.269 30.232 85.517 30.36 84.765 30.728C84.413 30.904 84.221 30.968 83.933 31.256C83.709 31.48 83.741 32.184 83.773 32.552C83.805 32.92 83.709 33.288 83.709 33.64C83.709 33.992 83.805 34.312 83.805 35C83.805 35.688 83.805 36.056 83.933 36.28C84.061 36.504 84.557 36.712 84.701 36.824ZM83.373 35.96C83.213 36.024 83.069 35.768 82.925 35.448C82.669 35.016 82.557 34.424 82.557 33.96C82.557 33.8 82.589 33.672 82.621 33.56C82.797 33.112 82.669 32.808 82.797 32.664C82.861 32.504 83.165 31.752 83.293 31.752C83.437 31.752 83.341 32.024 83.341 32.488C83.341 32.952 83.341 32.888 83.325 33.16C83.309 33.432 83.261 33.48 83.277 33.848C83.293 34.216 83.341 34.312 83.325 34.504C83.309 34.696 83.373 34.92 83.357 35.176C83.341 35.432 83.485 35.912 83.373 35.96ZM84.285 29.256C84.173 29.256 84.029 29.064 83.981 28.904C83.965 28.728 83.741 28.328 83.741 27.96C83.741 27.544 83.757 27.304 83.917 26.824C83.965 26.6 84.077 26.232 84.221 26.232C84.317 26.232 84.237 26.456 84.237 26.952C84.237 27.448 84.173 27.24 84.189 27.432C84.205 27.624 84.253 27.96 84.253 28.168C84.253 28.376 84.269 28.568 84.269 28.808C84.269 29.048 84.285 29.256 84.285 29.256ZM102.575 36.776C102.575 36.488 102.319 36.424 102.127 36.2C101.871 35.912 101.615 35.784 101.551 35.432C101.503 35.096 101.279 34.2 101.151 33.88C101.023 33.512 101.007 33.304 100.863 33.128C100.735 32.936 100.399 32.6 100.239 32.392C99.7269 31.832 99.6949 31.816 99.5349 31.752C99.5349 31.768 99.9829 31.464 100.239 31.32C100.511 31.176 100.879 30.744 101.103 30.392C101.263 30.024 101.551 29.416 101.551 29.048C101.551 28.664 101.519 27.816 101.343 27.544C101.135 27.24 100.879 26.712 100.463 26.552C100.111 26.424 99.4709 26.184 98.7189 26.184H97.2309C97.1349 26.184 97.0069 26.184 96.8629 26.2C96.3349 26.248 95.7909 26.264 95.3429 26.264C95.2149 26.264 95.0709 26.264 94.9269 26.248C94.7509 26.232 94.6389 26.2 94.5109 26.2C94.4149 26.2 94.3189 26.232 94.1589 26.328C94.0629 26.408 94.0149 26.696 94.0149 27.032C94.0149 27.64 94.1109 28.44 94.1109 28.728C94.1109 28.824 94.1109 28.936 94.0629 29.016C94.0469 29.304 94.0309 29.592 94.0309 29.928C94.0309 30.152 94.0469 30.344 94.0469 30.568C94.0629 31.016 94.0629 31.192 94.0629 31.512C94.0629 31.96 94.1109 32.44 94.1109 33.048C94.0949 33.32 94.0949 33.656 94.0949 34.024C94.0949 34.744 94.1109 35.512 94.1109 35.736C94.1109 35.912 94.1269 35.944 94.1269 36.008C94.1269 36.184 94.0629 36.408 94.0629 36.888C94.0629 37.048 94.4949 37.144 94.9269 37.144C95.0549 37.144 95.1509 37.128 95.2149 37.128C95.5189 37.096 95.9189 37.096 96.0949 37.048C96.2549 37.016 96.4309 36.872 96.4309 36.632C96.3829 36.456 96.3829 36.328 96.2869 36.12C96.2389 36.008 96.2389 35.832 96.2389 35.624V34.984C96.2389 34.488 96.2229 34.328 96.2069 33.752C96.1749 33.368 96.0949 33.144 96.0949 32.92C96.0949 32.84 96.0949 32.76 96.1429 32.68C96.3029 32.408 96.4949 32.296 96.7029 32.296C97.0389 32.296 97.0069 32.264 97.1669 32.264C97.2949 32.264 97.6309 32.296 97.7909 32.392C98.2389 32.616 98.3029 32.712 98.5269 33.176C98.7029 33.544 99.0069 33.816 99.1829 34.648C99.2309 34.856 99.4389 35.832 99.5349 36.088C99.5509 36.344 99.8229 36.936 100.079 37.016C100.143 37.048 100.255 37.064 100.383 37.064C100.671 37.064 101.055 37 101.327 37C101.647 37 101.759 37.048 102.047 37.048C102.159 37.048 102.271 37.064 102.351 37.064C102.495 37.064 102.575 37.016 102.575 36.776ZM96.2389 26.952C96.2709 26.776 96.8469 26.824 97.3109 26.776C97.8869 26.776 99.3109 26.776 99.6949 27C100.095 27.24 100.319 27.384 100.447 27.896C100.479 28.072 100.559 28.36 100.559 28.728C100.559 28.872 100.543 29.016 100.527 29.16C100.495 29.416 100.335 30.024 100.063 30.456C99.7909 30.888 99.1029 31.032 98.6709 31.352C98.3349 31.592 97.6949 31.56 97.3749 31.608C97.2949 31.624 97.1509 31.64 97.0069 31.64C96.7989 31.64 96.6069 31.624 96.4629 31.624C96.3669 31.624 96.2869 31.608 96.2869 31.576V31.304C96.2869 30.968 96.3029 30.408 96.3349 30.104C96.3349 30.056 96.3509 29.992 96.3509 29.88C96.3509 29.4 96.2389 28.536 96.2229 28.008C96.2069 27.816 96.2069 27.736 96.2069 27.592C96.2069 27.272 96.2229 27.048 96.2389 26.952ZM93.2949 26.2C93.4709 26.2 93.7109 26.6 93.7109 27.032C93.7109 27.112 93.6949 27.192 93.6789 27.272C93.6469 27.4 93.6309 27.528 93.6309 27.656C93.6309 27.944 93.6949 28.232 93.6949 28.456C93.6949 28.52 93.6949 28.584 93.6789 28.632C93.6469 28.808 93.6309 28.984 93.6309 29.16C93.6309 29.384 93.6469 29.608 93.6469 29.832C93.6469 30.2 93.6149 30.424 93.6149 30.888C93.6149 31.176 93.6309 31.56 93.6309 31.944C93.6309 32.136 93.6309 32.328 93.6149 32.52C93.5989 32.664 93.5829 32.776 93.5829 32.888C93.5829 33.128 93.6309 33.272 93.6309 33.496C93.6309 33.56 93.6149 33.624 93.6149 33.688C93.5989 33.832 93.5989 33.96 93.5989 34.072C93.5989 34.328 93.6149 34.552 93.6149 34.936C93.6149 35.448 93.6469 35.624 93.6469 35.944V36.184C93.6149 36.68 93.6789 36.856 93.5349 37C93.4709 37.08 93.3109 37.144 93.1669 37.144C93.0389 37.144 92.9109 37.08 92.8949 36.936C92.8949 36.424 92.9269 35.912 92.9589 35.704C92.9749 35.64 92.9749 35.56 92.9749 35.48C92.9749 35.192 92.9269 34.808 92.9269 34.504C92.9269 34.216 92.9909 33.928 92.9909 33.656C92.9909 33.56 92.9749 33.48 92.9589 33.368C92.9429 33.32 92.9429 33.272 92.9429 33.208C92.9429 32.936 93.0709 32.632 93.0709 32.376C93.0709 32.344 93.0549 32.312 93.0549 32.28C93.0549 32.12 93.0549 31.944 93.0549 31.8C93.0549 31.656 93.0549 31.528 93.0389 31.4C93.0069 31.128 92.9589 30.344 92.9589 29.864C92.9589 28.856 93.0229 28.44 93.0229 28.04C93.0229 27.928 93.0229 27.816 93.0069 27.688C92.9749 27.416 92.9589 27.24 92.9589 27.112C92.9589 26.952 92.9749 26.856 93.0069 26.648C93.0549 26.264 93.1189 26.232 93.2949 26.2ZM107.619 31.48C107.747 31.48 107.907 31.528 108.051 31.528C108.195 31.528 108.451 31.576 108.691 31.608C108.739 31.624 108.787 31.624 108.819 31.624C109.059 31.624 109.219 31.464 109.315 31.272C109.379 31.16 109.411 31.032 109.411 30.952C109.411 30.856 109.379 30.776 109.235 30.76C109.107 30.76 108.963 30.84 108.755 30.84C108.659 30.808 108.563 30.808 108.451 30.808C108.339 30.808 108.243 30.808 108.163 30.84C107.987 30.872 107.715 30.872 107.443 30.92C107.315 30.936 107.187 30.952 107.091 30.952C106.963 30.952 106.883 30.936 106.867 30.84C106.851 30.728 106.803 30.52 106.803 30.168C106.803 30.024 106.803 29.896 106.851 29.784L106.899 29.208C106.899 29.048 106.883 28.872 106.867 28.616C106.835 28.28 106.803 27.928 106.803 27.656C106.803 27.512 106.867 27.352 106.867 27.128C106.867 27 106.867 26.92 107.075 26.92C107.555 26.968 108.195 27 109.155 27C109.347 27 109.475 27.112 109.731 27.112C109.907 27.112 110.099 27.224 110.419 27.272C110.467 27.272 110.531 27.288 110.563 27.288C110.723 27.288 110.675 27.208 110.755 27.16C110.835 27.08 111.123 26.744 111.123 26.488C111.059 26.248 110.723 26.248 110.499 26.248C110.323 26.248 109.603 26.328 109.235 26.328C108.915 26.328 108.579 26.28 108.163 26.28C107.123 26.28 106.803 26.28 106.531 26.264C106.291 26.248 106.147 26.232 106.035 26.232C105.827 26.232 105.891 26.264 105.523 26.28C105.395 26.296 105.251 26.296 104.995 26.296C104.851 26.296 104.755 26.328 104.627 26.392C104.595 26.408 104.595 26.536 104.595 26.712C104.595 27.16 104.675 27.896 104.675 28.248C104.675 28.648 104.723 29.288 104.723 29.704C104.723 29.816 104.723 29.88 104.707 29.976C104.707 30.04 104.707 30.152 104.707 30.376C104.707 30.52 104.707 30.632 104.707 30.712C104.707 30.728 104.611 31.112 104.611 31.432C104.611 31.656 104.659 31.896 104.707 32.152C104.707 32.44 104.691 32.808 104.691 33.048C104.691 33.192 104.691 33.304 104.707 33.336C104.755 33.416 104.771 33.512 104.771 33.592C104.771 33.704 104.755 33.832 104.739 33.944C104.707 34.184 104.675 34.52 104.675 34.824V35.384C104.675 35.496 104.595 35.624 104.595 35.736C104.595 36.04 104.563 36.312 104.563 36.648C104.563 37.016 104.851 37.096 105.251 37.096C105.603 37.096 105.891 36.984 106.275 36.968C106.643 36.952 107.347 36.888 107.843 36.888C107.987 36.888 108.243 36.936 108.339 36.952H109.155C109.315 36.952 109.731 36.984 109.843 37.016C109.891 37.032 110.099 37.064 110.323 37.064C110.403 37.064 110.499 37.064 110.579 37.048C110.835 37 111.155 36.312 111.155 36.152C111.155 35.896 111.123 35.848 111.027 35.848C110.979 35.848 110.899 35.896 110.803 35.912C110.563 35.976 110.227 36.152 109.939 36.152C109.779 36.152 109.315 36.184 108.611 36.312C108.483 36.312 108.243 36.328 108.083 36.328H107.315C107.203 36.328 107.123 36.328 107.059 36.312C106.947 36.264 106.867 36.216 106.851 35.496C106.851 35.352 106.883 35.16 106.883 34.936V33.912C106.883 33.64 106.931 33.368 106.947 33.144C106.947 32.808 106.947 32.616 106.915 32.328C106.915 32.136 106.851 31.896 106.851 31.736C106.851 31.624 106.851 31.576 106.899 31.512C106.931 31.464 107.011 31.464 107.091 31.464C107.251 31.464 107.427 31.48 107.619 31.48ZM103.795 26.2C103.619 26.232 103.555 26.264 103.507 26.696C103.459 26.872 103.443 27 103.443 27.144C103.443 27.272 103.459 27.432 103.507 27.688C103.523 27.832 103.523 27.96 103.523 28.088C103.523 28.456 103.459 28.872 103.459 29.864C103.459 30.344 103.507 31.128 103.539 31.4C103.555 31.528 103.555 31.656 103.555 31.8C103.555 31.96 103.555 32.12 103.555 32.36C103.555 32.616 103.443 32.936 103.443 33.208C103.443 33.336 103.475 33.448 103.475 33.656C103.475 33.928 103.427 34.216 103.427 34.504C103.427 34.824 103.475 35.224 103.475 35.496C103.475 35.576 103.459 35.64 103.459 35.704C103.427 35.912 103.379 36.392 103.379 36.712C103.379 36.808 103.395 36.872 103.395 36.936C103.411 37.096 103.523 37.144 103.651 37.144C103.795 37.144 103.987 37.064 104.035 37C104.131 36.936 104.131 36.792 104.131 36.584C104.131 36.488 104.131 36.36 104.147 36.184C104.147 36.072 104.163 35.992 104.163 35.928C104.163 35.608 104.115 35.416 104.115 34.936C104.115 34.552 104.083 34.328 104.083 34.056C104.083 33.944 104.083 33.832 104.115 33.512C104.115 33.32 104.083 33.16 104.083 32.904C104.083 32.808 104.083 32.68 104.115 32.52C104.131 32.328 104.147 32.136 104.147 31.944C104.147 31.576 104.115 31.176 104.115 30.888C104.115 30.424 104.147 30.2 104.147 29.832C104.147 29.624 104.131 29.448 104.131 29.224C104.131 29.016 104.147 28.824 104.179 28.632C104.195 28.584 104.195 28.488 104.195 28.408C104.195 28.072 104.147 27.592 104.147 27.192C104.147 27.032 104.163 26.872 104.179 26.744C104.195 26.696 104.195 26.648 104.195 26.568C104.195 26.28 104.003 26.2 103.859 26.2H103.795ZM124.452 26.856C124.5 26.744 124.516 26.648 124.516 26.568C124.516 26.312 124.292 26.296 124.004 26.296C123.572 26.296 123.252 26.2 122.932 26.2C122.836 26.2 122.708 26.2 122.628 26.216C122.276 26.264 121.988 26.424 121.844 27C121.7 27.512 121.588 28.152 121.412 28.44C121.236 28.76 121.124 29.096 121.012 29.512C120.9 29.928 120.708 30.456 120.452 30.968C120.164 31.512 120.26 31.464 119.828 32.328C119.396 33.176 119.428 33.304 119.22 33.704C119.14 33.88 119.06 33.928 118.996 33.928C118.9 33.928 118.836 33.848 118.756 33.72C118.756 33.368 118.308 33.096 118.308 32.76C118.308 32.344 117.956 31.896 117.796 31.608C117.572 31.336 117.476 30.936 117.316 30.68C117.044 30.232 116.916 29.736 116.692 29.4C116.516 29.112 116.276 28.776 116.1 28.408C115.94 28.008 115.364 27.352 115.22 27C115.124 26.6 115.108 26.328 114.948 26.264C114.932 26.248 114.868 26.232 114.756 26.232C114.564 26.232 114.436 26.248 114.212 26.248C113.892 26.232 113.748 26.232 113.444 26.232C113.284 26.232 113.252 26.248 113.252 26.376V26.84C113.252 27.048 113.252 27.288 113.204 27.64C113.252 27.768 113.284 28.44 113.284 28.616C113.284 29.048 113.348 29.704 113.348 30.04C113.348 30.44 113.284 30.76 113.284 31.096V31.976C113.284 32.312 113.252 32.696 113.252 33.224C113.252 33.944 113.3 34.424 113.3 34.776C113.3 35.064 113.204 35.64 113.204 35.944C113.204 36.088 113.204 36.472 113.204 36.552C113.172 36.712 113.14 36.792 113.14 36.872C113.14 37 113.22 37.016 113.508 37.032C113.588 37.032 114.004 37 114.068 37C114.228 37 114.292 36.888 114.292 36.76C114.292 36.68 114.26 36.6 114.244 36.552C114.212 36.472 114.084 36.232 114.084 35.928C114.084 35.624 114.004 35.032 114.004 34.44C114.004 34.024 114.068 33.208 114.068 32.664C114.068 32.472 114.068 32.312 114.036 32.216C114.036 32.184 114.02 32.152 114.02 32.136C114.004 32.072 114.004 32.008 114.004 31.944C114.004 31.624 114.1 31.256 114.1 30.984C114.1 30.632 114.148 30.456 114.148 30.04C114.148 29.864 114.132 29.688 114.132 29.56C114.132 29.448 114.148 29.368 114.196 29.352C114.324 29.352 114.532 29.832 114.708 30.264C114.932 30.84 115.06 31.352 115.316 31.752C115.588 32.136 115.588 32.408 115.94 32.84C116.276 33.288 116.228 33.624 116.452 33.944C116.676 34.312 116.804 34.728 116.932 35.032C117.012 35.32 117.204 35.64 117.38 35.944C117.524 36.28 117.732 36.968 117.908 37.016C117.956 37.016 118.02 37.032 118.084 37.032C118.356 37.032 118.82 36.968 118.932 36.856C119.172 36.664 119.284 36.184 119.38 35.816C119.38 35.688 119.716 34.84 119.764 34.552C119.844 34.232 120.148 33.496 120.292 33.144C120.404 32.744 120.612 32.248 120.788 31.832C121.012 31.448 121.108 31.192 121.204 30.872C121.3 30.536 121.54 30.04 121.7 29.576C121.876 29.096 121.828 29.016 122.052 28.712C122.164 28.504 122.132 28.44 122.276 28.44C122.356 28.44 122.404 28.504 122.404 28.648C122.404 28.888 122.324 29.272 122.324 29.56C122.34 29.832 122.356 29.976 122.356 30.408C122.356 30.584 122.356 30.76 122.404 31.032C122.468 31.592 122.5 31.816 122.5 32.104C122.468 32.488 122.468 32.616 122.468 33C122.468 33.144 122.468 33.304 122.436 33.48C122.404 33.64 122.372 33.768 122.372 33.928C122.372 34.264 122.452 34.6 122.5 34.92C122.5 35.08 122.372 35.624 122.372 35.752C122.372 36.104 122.276 36.536 122.244 36.648C122.244 36.664 122.228 36.696 122.228 36.728C122.228 37.016 122.564 37.064 122.9 37.064C123.108 37.064 123.284 37.048 123.428 37.048C123.86 37.048 124.148 37.08 124.372 37.08C124.612 37.08 124.804 37.048 124.836 36.872C124.836 36.536 124.532 35.384 124.5 34.744C124.484 34.168 124.292 32.968 124.292 32.232C124.292 32.104 124.292 31.976 124.324 31.896C124.34 31.688 124.356 31.464 124.356 31.24C124.356 30.776 124.324 30.296 124.324 29.88C124.324 29.448 124.34 28.856 124.34 28.408C124.34 28.152 124.34 27.976 124.324 27.864C124.292 27.688 124.276 27.512 124.276 27.352C124.276 27.192 124.436 27 124.452 26.856ZM112.484 26.2C112.628 26.2 112.804 26.312 112.804 26.632C112.804 26.696 112.804 26.76 112.788 26.84C112.772 26.952 112.756 27.08 112.756 27.224C112.756 27.64 112.836 28.152 112.836 28.472C112.836 28.536 112.82 28.584 112.82 28.632C112.788 28.808 112.772 28.984 112.772 29.16C112.772 29.384 112.788 29.608 112.788 29.832C112.788 30.2 112.756 30.424 112.756 30.888C112.756 31.176 112.772 31.56 112.772 31.944C112.772 32.136 112.772 32.328 112.756 32.52C112.74 32.664 112.724 32.776 112.724 32.888C112.724 33.128 112.772 33.272 112.772 33.496C112.772 33.56 112.756 33.624 112.756 33.688C112.74 33.832 112.74 33.96 112.74 34.072C112.74 34.328 112.756 34.552 112.756 34.936C112.756 35.448 112.788 35.624 112.788 35.944V36.184C112.756 36.68 112.82 36.856 112.676 37C112.612 37.08 112.452 37.144 112.308 37.144C112.18 37.144 112.052 37.08 112.036 36.936V36.776C112.036 36.424 112.068 35.912 112.1 35.704C112.116 35.64 112.116 35.56 112.116 35.48C112.116 35.192 112.068 34.808 112.068 34.504C112.068 34.216 112.132 33.928 112.132 33.656C112.132 33.56 112.116 33.48 112.1 33.368C112.084 33.32 112.084 33.272 112.084 33.208C112.084 32.936 112.212 32.632 112.212 32.376C112.212 32.344 112.196 32.312 112.196 32.28C112.196 32.12 112.196 31.944 112.196 31.8C112.196 31.656 112.196 31.528 112.18 31.4C112.148 31.128 112.1 30.344 112.1 29.864C112.1 28.856 112.164 28.44 112.164 28.04C112.164 27.928 112.164 27.816 112.148 27.688C112.116 27.416 112.1 27.24 112.1 27.112C112.1 26.952 112.116 26.856 112.148 26.648C112.196 26.264 112.26 26.232 112.484 26.2ZM129.497 36.376C129.497 36.312 129.401 35.896 129.401 35.704C129.433 35.304 129.449 35.064 129.449 34.728C129.449 34.552 129.449 34.344 129.433 34.088C129.401 33.48 129.257 32.744 129.257 32.072C129.257 31.56 129.353 31.464 129.401 31.16C129.401 31.128 129.417 31.096 129.417 31.032C129.417 30.696 129.241 30.024 129.241 29.624C129.241 29.336 129.369 28.808 129.369 28.44C129.369 28.28 129.353 28.024 129.353 27.8C129.369 27.272 129.417 26.904 129.417 26.68C129.417 26.344 129.353 26.248 129.049 26.248C128.505 26.248 128.169 26.136 127.737 26.136C127.113 26.136 127.033 26.296 127.033 26.632C127.033 26.776 127.049 26.952 127.049 27.144C127.049 27.48 127.225 28.728 127.225 29.208C127.225 29.592 127.177 30.312 127.177 31.56C127.177 31.912 127.177 32.312 127.193 32.76C127.193 32.856 127.177 33 127.177 33.144C127.177 33.416 127.193 33.736 127.193 33.992V34.824C127.193 35.032 127.193 35.224 127.209 35.384C127.209 35.592 127.129 35.912 127.113 36.072C127.113 36.232 127.097 36.392 127.097 36.52C127.097 36.808 127.161 37.032 127.465 37.032C127.897 37.032 128.185 36.936 128.505 36.936C128.617 36.936 128.953 36.968 129.065 37C129.065 37 129.497 37 129.497 36.376ZM126.281 26.2C126.569 26.2 126.649 26.424 126.649 26.648C126.649 26.696 126.649 26.728 126.633 26.776C126.617 26.888 126.601 27.032 126.601 27.192C126.601 27.624 126.681 28.152 126.681 28.472C126.681 28.536 126.665 28.584 126.665 28.632C126.633 28.808 126.617 28.984 126.617 29.16C126.617 29.384 126.633 29.608 126.633 29.832C126.633 30.2 126.601 30.424 126.601 30.888C126.601 31.176 126.617 31.56 126.617 31.944C126.617 32.136 126.617 32.328 126.601 32.52C126.585 32.664 126.569 32.776 126.569 32.888C126.569 33.128 126.617 33.272 126.617 33.496C126.617 33.704 126.585 33.896 126.585 34.072C126.585 34.328 126.601 34.552 126.601 34.936C126.601 35.448 126.633 35.624 126.633 35.944V36.184C126.601 36.68 126.665 36.856 126.521 37C126.457 37.08 126.297 37.144 126.153 37.144C126.025 37.144 125.881 37.08 125.881 36.776C125.881 36.424 125.913 35.912 125.945 35.704C125.961 35.64 125.961 35.56 125.961 35.48C125.961 35.192 125.913 34.808 125.913 34.504C125.913 34.216 125.977 33.928 125.977 33.656C125.977 33.48 125.929 33.352 125.929 33.208C125.929 32.936 126.057 32.632 126.057 32.376C126.057 32.344 126.041 32.312 126.041 32.28C126.041 32.12 126.041 31.944 126.041 31.8C126.041 31.656 126.041 31.528 126.025 31.4C125.993 31.128 125.945 30.344 125.945 29.864C125.945 28.856 126.009 28.44 126.009 28.04C126.009 27.928 126.009 27.816 125.993 27.688C125.961 27.416 125.945 27.24 125.945 27.112C125.945 26.952 125.961 26.856 125.993 26.648C126.041 26.264 126.105 26.232 126.281 26.2ZM140.416 26.552C140.4 26.408 140.48 26.232 140.096 26.232C139.904 26.232 139.6 26.248 139.456 26.248C139.184 26.248 139.12 26.28 139.12 26.52C139.12 26.84 139.376 27.24 139.376 27.608C139.376 27.912 139.456 28.504 139.456 29.416C139.456 29.848 139.504 30.248 139.504 30.68C139.504 31.16 139.536 31.32 139.568 31.896C139.6 32.248 139.616 32.488 139.616 32.744C139.616 32.84 139.616 32.968 139.6 33.064C139.536 33.48 139.52 33.816 139.52 33.816C139.52 33.816 139.088 33.192 138.8 32.872C138.48 32.584 138.288 32.28 137.904 31.912C137.52 31.576 136.912 30.856 136.656 30.536C136.432 30.232 136.064 29.784 135.776 29.496C135.488 29.208 135.136 28.616 134.784 28.152C134.464 27.704 134.144 27.448 133.888 27.08C133.6 26.712 133.552 26.424 133.248 26.376C133.232 26.376 133.216 26.36 133.2 26.36C132.976 26.296 132.736 26.248 132.464 26.248C132.352 26.264 132.32 26.264 132.272 26.264H132.16C132.016 26.28 131.984 26.376 131.984 26.664C131.984 27.016 132.032 27.608 132.032 27.8C132.08 27.96 132.08 28.28 132.08 28.632V29.576C132.08 29.976 132.032 30.584 132.032 30.968V31.144C132.08 31.608 132.08 31.832 132.08 32.248C132.08 32.6 132.112 33.096 132.112 33.576C132.112 33.704 132.096 33.832 132.096 34.168V36.328C132.064 36.536 132.064 36.68 132.064 36.872C132.064 37.032 132.208 37.064 132.352 37.064H132.8C133.008 37.064 133.072 37 133.072 36.648C133.072 36.328 132.96 36.088 132.88 35.56C132.88 35.352 132.896 34.952 132.896 34.888C132.896 34.552 132.832 34.152 132.832 33.704C132.832 33.224 132.752 32.92 132.752 32.584C132.752 32.248 132.784 32.136 132.784 32.056C132.784 31.752 132.752 31.512 132.736 31.032C132.72 30.76 132.656 30.456 132.656 30.168C132.656 30.056 132.672 29.96 132.688 29.88C132.704 29.848 132.704 29.8 132.704 29.752V29.64C132.704 29.544 132.704 29.448 132.752 29.448C132.896 29.448 133.136 29.784 133.296 29.976C133.568 30.296 133.744 30.68 133.904 30.888C134.064 31.112 134.576 31.608 134.88 31.96C135.184 32.28 135.28 32.568 135.632 32.984C135.952 33.368 136.16 33.528 136.624 33.896C137.056 34.312 137.456 34.92 137.76 35.208C138.064 35.512 138.352 35.912 138.624 36.072C138.944 36.232 139.28 37.048 139.536 37.16C139.6 37.176 139.648 37.192 139.712 37.192C139.952 37.192 140.192 37.112 140.272 36.968C140.336 36.872 140.352 36.632 140.352 36.36C140.352 36.168 140.336 35.976 140.32 35.88C140.336 35.544 140.336 35.24 140.336 34.952C140.272 34.648 140.192 34.04 140.192 33.736C140.192 33.064 140.224 32.44 140.224 31.784C140.224 31.464 140.24 31.112 140.24 30.696C140.24 30.328 140.224 30.024 140.224 29.72C140.224 29.176 140.336 28.728 140.336 28.312C140.336 27.624 140.432 26.936 140.432 26.648C140.432 26.6 140.416 26.568 140.416 26.552ZM131.312 26.2C131.088 26.232 131.024 26.264 130.976 26.648C130.944 26.856 130.928 26.952 130.928 27.112C130.928 27.24 130.944 27.416 130.976 27.688C130.992 27.816 130.992 27.928 130.992 28.04C130.992 28.44 130.928 28.856 130.928 29.864C130.928 30.344 130.976 31.128 131.008 31.4C131.024 31.528 131.024 31.656 131.024 31.8C131.024 31.944 131.024 32.12 131.024 32.28C131.024 32.312 131.04 32.344 131.04 32.376C131.04 32.632 130.912 32.936 130.912 33.208C130.912 33.272 130.912 33.32 130.928 33.368C130.944 33.48 130.96 33.56 130.96 33.656C130.96 33.928 130.896 34.216 130.896 34.504C130.896 34.808 130.944 35.192 130.944 35.48C130.944 35.56 130.944 35.64 130.928 35.704C130.896 35.912 130.864 36.424 130.864 36.936C130.88 37.08 131.008 37.144 131.136 37.144C131.28 37.144 131.44 37.08 131.504 37C131.648 36.856 131.584 36.68 131.616 36.184C131.616 35.624 131.584 35.448 131.584 34.936C131.584 34.552 131.568 34.328 131.568 34.072C131.568 33.96 131.568 33.832 131.584 33.688C131.584 33.624 131.6 33.56 131.6 33.496C131.6 33.272 131.552 33.128 131.552 32.888C131.552 32.776 131.568 32.664 131.584 32.52C131.6 32.328 131.6 32.136 131.6 31.944C131.6 31.56 131.584 31.176 131.584 30.888C131.584 30.424 131.616 30.2 131.616 29.832C131.616 29.608 131.6 29.384 131.6 29.16C131.6 28.984 131.616 28.808 131.648 28.632C131.648 28.584 131.664 28.536 131.664 28.472C131.664 28.152 131.584 27.64 131.584 27.224C131.584 27.08 131.6 26.952 131.616 26.84C131.632 26.76 131.632 26.696 131.632 26.632C131.632 26.312 131.456 26.2 131.312 26.2ZM145.035 36.776C145.051 37.016 145.163 37.08 145.307 37.08C145.467 37.08 145.659 37 145.835 36.968C145.915 36.952 146.107 36.84 146.219 36.84C146.507 36.84 146.619 36.856 146.859 36.888H146.939C147.019 36.904 147.115 36.92 147.179 36.92C147.355 36.92 147.499 36.84 147.499 36.616C147.499 36.568 147.499 36.52 147.483 36.488C147.451 36.2 147.227 36.04 147.227 35.464C147.227 35.208 147.291 34.984 147.291 34.68C147.291 34.552 147.291 34.376 147.243 34.184C147.147 33.656 147.083 33 147.083 32.216C147.083 31.432 147.067 30.488 147.035 29.88C147.019 29.72 147.019 29.496 147.019 29.272V27.8C147.019 27.72 147.003 27.624 147.003 27.56C147.003 27.224 147.067 27.032 147.259 27C147.323 26.952 147.435 26.952 147.515 26.952C147.723 26.952 147.947 27 148.283 27.016C148.731 27.048 148.955 27.288 149.259 27.288C149.467 27.288 149.675 26.712 149.675 26.456C149.643 26.248 149.579 26.2 149.195 26.2C148.699 26.216 148.555 26.392 148.283 26.392C148.203 26.392 148.155 26.392 148.123 26.376C147.787 26.296 147.563 26.296 147.003 26.296C146.411 26.296 145.739 26.392 145.291 26.392C144.987 26.392 144.987 26.424 144.987 26.888C144.987 27.24 145.035 27.16 145.035 27.304C145.035 27.368 145.019 27.448 145.003 27.576C144.955 28.088 144.875 28.424 144.875 28.792C144.875 29.08 144.907 29.336 144.907 29.56C144.907 29.64 144.907 29.72 144.891 29.784C144.891 29.992 145.099 30.312 145.099 30.6C145.099 30.648 145.099 30.696 145.083 30.744C144.987 31.096 144.987 31.32 144.955 31.72C144.939 31.784 144.939 31.88 144.939 31.976C144.939 32.312 144.987 32.728 144.987 33.128V34.968C144.987 34.968 145.003 36.232 145.035 36.776ZM143.531 26.328C143.435 26.328 143.403 26.36 143.307 26.376C143.115 26.392 142.907 26.408 142.731 26.408C142.459 26.408 141.947 26.232 141.851 26.216C141.819 26.216 141.819 26.2 141.787 26.2C141.627 26.2 141.483 26.312 141.387 26.552C141.259 26.792 141.227 26.968 141.227 27.08C141.227 27.24 141.307 27.288 141.387 27.288H141.675C141.771 27.288 141.851 27.288 141.883 27.272C141.963 27.24 142.267 27.16 142.587 27.16C142.907 27.16 143.275 27.016 143.451 27.016C143.787 27.016 143.771 27.288 143.835 27.512C143.835 27.624 143.835 27.832 143.835 28.088C143.835 28.312 143.835 28.584 143.851 28.808C143.867 28.936 143.867 29.032 143.867 29.144C143.867 29.352 143.851 29.528 143.851 29.736C143.867 30.344 143.883 30.632 143.883 31.048C143.867 31.512 143.867 31.72 143.867 31.896C143.867 32.488 143.915 33.224 143.915 33.72C143.915 34.792 143.915 34.968 143.883 35.144C143.835 35.624 143.787 36.68 143.787 36.968C143.787 37.08 143.931 37.128 144.091 37.128C144.299 37.128 144.555 37.064 144.555 36.952C144.555 36.824 144.539 36.728 144.539 36.568C144.539 36.488 144.539 36.392 144.555 36.28C144.555 36.216 144.555 36.136 144.555 36.024C144.555 35.576 144.523 34.776 144.523 34.36C144.523 34.008 144.603 33.64 144.603 33.336C144.603 33.208 144.587 33.096 144.555 33.016C144.507 32.904 144.475 32.776 144.475 32.648C144.475 32.44 144.523 32.184 144.523 31.928C144.523 31.448 144.571 31.144 144.571 30.824C144.571 30.712 144.555 30.584 144.555 30.456C144.523 30.216 144.523 29.992 144.523 29.736C144.523 29.496 144.523 29.272 144.491 29.016C144.475 28.904 144.459 28.808 144.459 28.712C144.459 28.312 144.571 27.96 144.571 27.688C144.571 27.336 144.555 27 144.555 26.696C144.555 26.376 144.411 26.28 144.219 26.28C143.979 26.28 143.739 26.328 143.531 26.328Z" fill="white"/>
<rect x="160.083" y="21" width="43" height="20" rx="10" fill="#F4D4DA" fill-opacity="0.5"/>
<path d="M169.041 29.2441C169.214 29.2441 169.369 29.2104 169.507 29.1431C169.647 29.0728 169.76 28.9761 169.845 28.853C169.933 28.73 169.981 28.5879 169.99 28.4268H170.988C170.982 28.7344 170.891 29.0142 170.715 29.2661C170.54 29.5181 170.307 29.7188 170.017 29.8682C169.727 30.0146 169.406 30.0879 169.054 30.0879C168.691 30.0879 168.375 30.0264 168.105 29.9033C167.835 29.7773 167.611 29.6045 167.433 29.3848C167.254 29.165 167.119 28.9116 167.028 28.6245C166.94 28.3374 166.896 28.0298 166.896 27.7017V27.5479C166.896 27.2197 166.94 26.9121 167.028 26.625C167.119 26.335 167.254 26.0801 167.433 25.8604C167.611 25.6406 167.835 25.4692 168.105 25.3462C168.375 25.2202 168.689 25.1572 169.05 25.1572C169.431 25.1572 169.765 25.2334 170.052 25.3857C170.339 25.5352 170.564 25.7446 170.729 26.0142C170.896 26.2808 170.982 26.5913 170.988 26.9458H169.99C169.981 26.77 169.938 26.6118 169.858 26.4712C169.782 26.3276 169.674 26.2134 169.533 26.1284C169.396 26.0435 169.23 26.001 169.037 26.001C168.823 26.001 168.646 26.0449 168.505 26.1328C168.364 26.2178 168.254 26.335 168.175 26.4844C168.096 26.6309 168.039 26.7964 168.004 26.981C167.972 27.1626 167.956 27.3516 167.956 27.5479V27.7017C167.956 27.8979 167.972 28.0884 168.004 28.2729C168.036 28.4575 168.092 28.623 168.171 28.7695C168.253 28.9131 168.364 29.0288 168.505 29.1167C168.646 29.2017 168.824 29.2441 169.041 29.2441ZM171.599 27.6753V27.5742C171.599 27.2314 171.648 26.9136 171.748 26.6206C171.848 26.3247 171.991 26.0684 172.179 25.8516C172.369 25.6318 172.601 25.4619 172.873 25.3418C173.148 25.2188 173.459 25.1572 173.805 25.1572C174.153 25.1572 174.464 25.2188 174.736 25.3418C175.012 25.4619 175.245 25.6318 175.435 25.8516C175.625 26.0684 175.771 26.3247 175.87 26.6206C175.97 26.9136 176.02 27.2314 176.02 27.5742V27.6753C176.02 28.0181 175.97 28.3359 175.87 28.6289C175.771 28.9219 175.625 29.1782 175.435 29.3979C175.245 29.6147 175.013 29.7847 174.741 29.9077C174.468 30.0278 174.159 30.0879 173.813 30.0879C173.465 30.0879 173.153 30.0278 172.877 29.9077C172.605 29.7847 172.374 29.6147 172.183 29.3979C171.993 29.1782 171.848 28.9219 171.748 28.6289C171.648 28.3359 171.599 28.0181 171.599 27.6753ZM172.658 27.5742V27.6753C172.658 27.8892 172.68 28.0913 172.724 28.2817C172.768 28.4722 172.836 28.6392 172.93 28.7827C173.024 28.9263 173.144 29.0391 173.291 29.1211C173.437 29.2031 173.611 29.2441 173.813 29.2441C174.01 29.2441 174.18 29.2031 174.323 29.1211C174.47 29.0391 174.59 28.9263 174.684 28.7827C174.777 28.6392 174.846 28.4722 174.89 28.2817C174.937 28.0913 174.96 27.8892 174.96 27.6753V27.5742C174.96 27.3633 174.937 27.1641 174.89 26.9766C174.846 26.7861 174.776 26.6177 174.679 26.4712C174.585 26.3247 174.465 26.2104 174.319 26.1284C174.175 26.0435 174.004 26.001 173.805 26.001C173.605 26.001 173.433 26.0435 173.286 26.1284C173.143 26.2104 173.024 26.3247 172.93 26.4712C172.836 26.6177 172.768 26.7861 172.724 26.9766C172.68 27.1641 172.658 27.3633 172.658 27.5742ZM177.966 26.2119V30H176.907V25.2451H177.905L177.966 26.2119ZM177.795 27.4468L177.435 27.4424C177.435 27.1143 177.476 26.811 177.558 26.5327C177.64 26.2544 177.76 26.0127 177.918 25.8076C178.076 25.5996 178.272 25.4399 178.507 25.3286C178.744 25.2144 179.018 25.1572 179.329 25.1572C179.545 25.1572 179.743 25.1895 179.922 25.2539C180.104 25.3154 180.26 25.4136 180.392 25.5483C180.527 25.6831 180.629 25.856 180.7 26.0669C180.773 26.2778 180.81 26.5327 180.81 26.8315V30H179.75V26.9238C179.75 26.6924 179.715 26.5107 179.645 26.3789C179.578 26.2471 179.479 26.1533 179.351 26.0977C179.225 26.0391 179.074 26.0098 178.898 26.0098C178.699 26.0098 178.529 26.0479 178.388 26.124C178.25 26.2002 178.138 26.3042 178.05 26.436C177.962 26.5679 177.897 26.7202 177.856 26.8931C177.815 27.0659 177.795 27.2505 177.795 27.4468ZM180.744 27.1655L180.247 27.2754C180.247 26.9883 180.287 26.7173 180.366 26.4624C180.448 26.2046 180.566 25.979 180.722 25.7856C180.88 25.5894 181.075 25.4355 181.306 25.3242C181.538 25.2129 181.803 25.1572 182.102 25.1572C182.345 25.1572 182.562 25.1909 182.752 25.2583C182.945 25.3228 183.109 25.4253 183.244 25.5659C183.379 25.7065 183.481 25.8896 183.552 26.1152C183.622 26.3379 183.657 26.6074 183.657 26.9238V30H182.594V26.9194C182.594 26.6792 182.559 26.4932 182.488 26.3613C182.421 26.2295 182.324 26.1387 182.198 26.0889C182.072 26.0361 181.921 26.0098 181.746 26.0098C181.582 26.0098 181.437 26.0405 181.311 26.1021C181.188 26.1606 181.083 26.2441 180.999 26.3525C180.914 26.458 180.849 26.5796 180.805 26.7173C180.764 26.855 180.744 27.0044 180.744 27.1655ZM185.881 25.2451V30H184.817V25.2451H185.881ZM184.747 23.9971C184.747 23.8359 184.8 23.7026 184.905 23.5972C185.014 23.4888 185.163 23.4346 185.354 23.4346C185.541 23.4346 185.689 23.4888 185.797 23.5972C185.906 23.7026 185.96 23.8359 185.96 23.9971C185.96 24.1553 185.906 24.2871 185.797 24.3926C185.689 24.498 185.541 24.5508 185.354 24.5508C185.163 24.5508 185.014 24.498 184.905 24.3926C184.8 24.2871 184.747 24.1553 184.747 23.9971ZM188.091 26.2603V30H187.032V25.2451H188.03L188.091 26.2603ZM187.902 27.4468L187.56 27.4424C187.562 27.1055 187.609 26.7964 187.7 26.5151C187.794 26.2339 187.923 25.9922 188.087 25.79C188.254 25.5879 188.453 25.4326 188.685 25.3242C188.916 25.2129 189.174 25.1572 189.458 25.1572C189.687 25.1572 189.893 25.1895 190.078 25.2539C190.265 25.3154 190.425 25.4165 190.557 25.5571C190.691 25.6978 190.794 25.8809 190.864 26.1064C190.935 26.3291 190.97 26.603 190.97 26.9282V30H189.906V26.9238C189.906 26.6953 189.873 26.5151 189.805 26.3833C189.741 26.2485 189.646 26.1533 189.52 26.0977C189.396 26.0391 189.243 26.0098 189.058 26.0098C188.876 26.0098 188.714 26.0479 188.57 26.124C188.427 26.2002 188.305 26.3042 188.206 26.436C188.109 26.5679 188.034 26.7202 187.981 26.8931C187.929 27.0659 187.902 27.2505 187.902 27.4468ZM195.096 25.2451H196.059V29.8682C196.059 30.2959 195.968 30.6592 195.786 30.958C195.604 31.2568 195.351 31.4839 195.026 31.6392C194.701 31.7974 194.324 31.8765 193.896 31.8765C193.715 31.8765 193.513 31.8501 193.29 31.7974C193.07 31.7446 192.856 31.6597 192.648 31.5425C192.443 31.4282 192.272 31.2773 192.134 31.0898L192.631 30.4658C192.801 30.668 192.988 30.8159 193.193 30.9097C193.398 31.0034 193.614 31.0503 193.839 31.0503C194.083 31.0503 194.289 31.0049 194.459 30.9141C194.632 30.8262 194.765 30.6958 194.859 30.5229C194.953 30.3501 195 30.1392 195 29.8901V26.3218L195.096 25.2451ZM191.866 27.6753V27.583C191.866 27.2227 191.91 26.8945 191.998 26.5986C192.086 26.2998 192.212 26.0435 192.376 25.8296C192.54 25.6128 192.739 25.4473 192.974 25.333C193.208 25.2158 193.473 25.1572 193.769 25.1572C194.077 25.1572 194.339 25.2129 194.556 25.3242C194.775 25.4355 194.958 25.5952 195.105 25.8032C195.251 26.0083 195.366 26.2544 195.448 26.5415C195.533 26.8257 195.596 27.1421 195.637 27.4907V27.7852C195.599 28.125 195.534 28.4355 195.443 28.7168C195.353 28.998 195.232 29.2412 195.083 29.4463C194.934 29.6514 194.749 29.8096 194.529 29.9209C194.312 30.0322 194.056 30.0879 193.76 30.0879C193.47 30.0879 193.208 30.0278 192.974 29.9077C192.742 29.7876 192.543 29.6191 192.376 29.4023C192.212 29.1855 192.086 28.9307 191.998 28.6377C191.91 28.3418 191.866 28.021 191.866 27.6753ZM192.925 27.583V27.6753C192.925 27.8921 192.946 28.0942 192.987 28.2817C193.031 28.4692 193.097 28.6348 193.185 28.7783C193.275 28.9189 193.39 29.0303 193.527 29.1123C193.668 29.1914 193.833 29.231 194.024 29.231C194.273 29.231 194.477 29.1782 194.635 29.0728C194.796 28.9673 194.919 28.8252 195.004 28.6465C195.092 28.4648 195.153 28.2627 195.188 28.04V27.2446C195.171 27.0718 195.134 26.9106 195.079 26.7612C195.026 26.6118 194.954 26.4814 194.863 26.3701C194.772 26.2559 194.658 26.168 194.521 26.1064C194.383 26.042 194.22 26.0098 194.033 26.0098C193.842 26.0098 193.677 26.0508 193.536 26.1328C193.396 26.2148 193.28 26.3276 193.189 26.4712C193.101 26.6147 193.035 26.7817 192.991 26.9722C192.947 27.1626 192.925 27.3662 192.925 27.583ZM174.868 37.7124C174.868 37.6069 174.842 37.5117 174.789 37.4268C174.736 37.3389 174.635 37.2598 174.486 37.1895C174.339 37.1191 174.123 37.0547 173.835 36.9961C173.583 36.9404 173.352 36.8745 173.141 36.7983C172.933 36.7192 172.754 36.624 172.605 36.5127C172.456 36.4014 172.34 36.2695 172.258 36.1172C172.176 35.9648 172.135 35.7891 172.135 35.5898C172.135 35.3965 172.177 35.2134 172.262 35.0405C172.347 34.8677 172.469 34.7153 172.627 34.5835C172.785 34.4517 172.977 34.3477 173.203 34.2715C173.431 34.1953 173.686 34.1572 173.967 34.1572C174.366 34.1572 174.707 34.2246 174.991 34.3594C175.278 34.4912 175.498 34.6714 175.65 34.8999C175.803 35.1255 175.879 35.3804 175.879 35.6646H174.82C174.82 35.5386 174.788 35.4214 174.723 35.313C174.662 35.2017 174.568 35.1123 174.442 35.0449C174.316 34.9746 174.158 34.9395 173.967 34.9395C173.786 34.9395 173.635 34.9688 173.515 35.0273C173.397 35.083 173.31 35.1562 173.251 35.2471C173.195 35.3379 173.167 35.4375 173.167 35.5459C173.167 35.625 173.182 35.6968 173.211 35.7612C173.244 35.8228 173.296 35.8799 173.37 35.9326C173.443 35.9824 173.542 36.0293 173.668 36.0732C173.797 36.1172 173.958 36.1597 174.152 36.2007C174.515 36.2769 174.827 36.375 175.088 36.4951C175.352 36.6123 175.554 36.7646 175.694 36.9521C175.835 37.1367 175.905 37.3711 175.905 37.6553C175.905 37.8662 175.86 38.0596 175.769 38.2354C175.681 38.4082 175.552 38.5591 175.382 38.688C175.212 38.814 175.009 38.9121 174.771 38.9824C174.537 39.0527 174.273 39.0879 173.98 39.0879C173.55 39.0879 173.185 39.0117 172.886 38.8594C172.587 38.7041 172.36 38.5063 172.205 38.2661C172.053 38.0229 171.977 37.771 171.977 37.5103H173C173.012 37.7065 173.066 37.8633 173.163 37.9805C173.263 38.0947 173.386 38.1782 173.532 38.231C173.682 38.2808 173.835 38.3057 173.994 38.3057C174.184 38.3057 174.344 38.2808 174.473 38.231C174.602 38.1782 174.7 38.1079 174.767 38.02C174.834 37.9292 174.868 37.8267 174.868 37.7124ZM176.63 36.6753V36.5742C176.63 36.2314 176.68 35.9136 176.78 35.6206C176.879 35.3247 177.023 35.0684 177.21 34.8516C177.401 34.6318 177.632 34.4619 177.905 34.3418C178.18 34.2188 178.491 34.1572 178.836 34.1572C179.185 34.1572 179.496 34.2188 179.768 34.3418C180.043 34.4619 180.276 34.6318 180.467 34.8516C180.657 35.0684 180.802 35.3247 180.902 35.6206C181.001 35.9136 181.051 36.2314 181.051 36.5742V36.6753C181.051 37.0181 181.001 37.3359 180.902 37.6289C180.802 37.9219 180.657 38.1782 180.467 38.3979C180.276 38.6147 180.045 38.7847 179.772 38.9077C179.5 39.0278 179.191 39.0879 178.845 39.0879C178.497 39.0879 178.185 39.0278 177.909 38.9077C177.637 38.7847 177.405 38.6147 177.215 38.3979C177.024 38.1782 176.879 37.9219 176.78 37.6289C176.68 37.3359 176.63 37.0181 176.63 36.6753ZM177.689 36.5742V36.6753C177.689 36.8892 177.711 37.0913 177.755 37.2817C177.799 37.4722 177.868 37.6392 177.962 37.7827C178.056 37.9263 178.176 38.0391 178.322 38.1211C178.469 38.2031 178.643 38.2441 178.845 38.2441C179.042 38.2441 179.211 38.2031 179.355 38.1211C179.501 38.0391 179.622 37.9263 179.715 37.7827C179.809 37.6392 179.878 37.4722 179.922 37.2817C179.969 37.0913 179.992 36.8892 179.992 36.6753V36.5742C179.992 36.3633 179.969 36.1641 179.922 35.9766C179.878 35.7861 179.808 35.6177 179.711 35.4712C179.617 35.3247 179.497 35.2104 179.351 35.1284C179.207 35.0435 179.036 35.001 178.836 35.001C178.637 35.001 178.464 35.0435 178.318 35.1284C178.174 35.2104 178.056 35.3247 177.962 35.4712C177.868 35.6177 177.799 35.7861 177.755 35.9766C177.711 36.1641 177.689 36.3633 177.689 36.5742ZM181.737 36.6753V36.5742C181.737 36.2314 181.787 35.9136 181.886 35.6206C181.986 35.3247 182.129 35.0684 182.317 34.8516C182.507 34.6318 182.739 34.4619 183.011 34.3418C183.287 34.2188 183.597 34.1572 183.943 34.1572C184.292 34.1572 184.602 34.2188 184.875 34.3418C185.15 34.4619 185.383 34.6318 185.573 34.8516C185.764 35.0684 185.909 35.3247 186.008 35.6206C186.108 35.9136 186.158 36.2314 186.158 36.5742V36.6753C186.158 37.0181 186.108 37.3359 186.008 37.6289C185.909 37.9219 185.764 38.1782 185.573 38.3979C185.383 38.6147 185.151 38.7847 184.879 38.9077C184.606 39.0278 184.297 39.0879 183.952 39.0879C183.603 39.0879 183.291 39.0278 183.016 38.9077C182.743 38.7847 182.512 38.6147 182.321 38.3979C182.131 38.1782 181.986 37.9219 181.886 37.6289C181.787 37.3359 181.737 37.0181 181.737 36.6753ZM182.796 36.5742V36.6753C182.796 36.8892 182.818 37.0913 182.862 37.2817C182.906 37.4722 182.975 37.6392 183.068 37.7827C183.162 37.9263 183.282 38.0391 183.429 38.1211C183.575 38.2031 183.75 38.2441 183.952 38.2441C184.148 38.2441 184.318 38.2031 184.461 38.1211C184.608 38.0391 184.728 37.9263 184.822 37.7827C184.916 37.6392 184.984 37.4722 185.028 37.2817C185.075 37.0913 185.099 36.8892 185.099 36.6753V36.5742C185.099 36.3633 185.075 36.1641 185.028 35.9766C184.984 35.7861 184.914 35.6177 184.817 35.4712C184.724 35.3247 184.604 35.2104 184.457 35.1284C184.313 35.0435 184.142 35.001 183.943 35.001C183.744 35.001 183.571 35.0435 183.424 35.1284C183.281 35.2104 183.162 35.3247 183.068 35.4712C182.975 35.6177 182.906 35.7861 182.862 35.9766C182.818 36.1641 182.796 36.3633 182.796 36.5742ZM188.096 35.2603V39H187.037V34.2451H188.034L188.096 35.2603ZM187.907 36.4468L187.564 36.4424C187.567 36.1055 187.614 35.7964 187.705 35.5151C187.798 35.2339 187.927 34.9922 188.091 34.79C188.258 34.5879 188.458 34.4326 188.689 34.3242C188.92 34.2129 189.178 34.1572 189.462 34.1572C189.691 34.1572 189.897 34.1895 190.082 34.2539C190.27 34.3154 190.429 34.4165 190.561 34.5571C190.696 34.6978 190.798 34.8809 190.869 35.1064C190.939 35.3291 190.974 35.603 190.974 35.9282V39H189.911V35.9238C189.911 35.6953 189.877 35.5151 189.81 35.3833C189.745 35.2485 189.65 35.1533 189.524 35.0977C189.401 35.0391 189.247 35.0098 189.062 35.0098C188.881 35.0098 188.718 35.0479 188.575 35.124C188.431 35.2002 188.31 35.3042 188.21 35.436C188.113 35.5679 188.039 35.7202 187.986 35.8931C187.933 36.0659 187.907 36.2505 187.907 36.4468Z" fill="white" fill-opacity="0.9"/>
<rect x="1.08301" y="0.5" width="233" height="61" rx="14.5" stroke="white" stroke-opacity="0.3"/>
</svg>
