<svg width="15" height="14" viewBox="0 0 15 14" fill="none" xmlns="http://www.w3.org/2000/svg">
<path d="M3.49217 6.66583C3.49216 6.58765 3.50759 6.51023 3.53757 6.43802C3.56754 6.36582 3.61149 6.30026 3.66687 6.24509C3.72225 6.18993 3.78797 6.14626 3.86027 6.11659C3.93257 6.08692 4.01002 6.07184 4.08816 6.0722L5.07625 6.07544C5.23379 6.07544 5.38489 6.13806 5.49629 6.24952C5.60769 6.36098 5.67028 6.51216 5.67028 6.66979V10.4081C5.78159 10.3751 5.92434 10.3399 6.08072 10.3032C6.18931 10.2776 6.28608 10.2161 6.35534 10.1286C6.42461 10.0411 6.46231 9.93281 6.46234 9.8212V5.18418C6.46233 5.02654 6.52491 4.87534 6.63631 4.76385C6.74771 4.65236 6.89881 4.58972 7.05637 4.58969H8.04646C8.20402 4.58973 8.35512 4.65238 8.46652 4.76387C8.57792 4.87535 8.6405 5.02654 8.6405 5.18418V9.48796C8.6405 9.48796 8.88827 9.38756 9.1298 9.28559C9.21949 9.24763 9.29602 9.18409 9.34985 9.1029C9.40368 9.0217 9.43243 8.92645 9.43251 8.82902V3.69805C9.4325 3.62001 9.44786 3.54273 9.47771 3.47062C9.50755 3.39852 9.5513 3.333 9.60645 3.27781C9.6616 3.22262 9.72708 3.17884 9.79914 3.14896C9.87121 3.11909 9.94844 3.10372 10.0264 3.10371H11.0165C11.1741 3.10371 11.3252 3.16633 11.4366 3.27779C11.548 3.38925 11.6106 3.54042 11.6106 3.69805V7.92313C12.469 7.30075 13.3389 6.55213 14.0292 5.652C14.1294 5.52134 14.1956 5.36791 14.2221 5.20539C14.2486 5.04288 14.2345 4.87633 14.181 4.72061C13.7139 3.35863 12.8377 2.17424 11.6723 1.3294C10.5069 0.484546 9.10912 0.020475 7.67009 0.000634623C3.78964 -0.0515203 0.58266 3.11777 0.583041 7.00074C0.579231 8.22943 0.899749 9.43736 1.51219 10.5024C1.59665 10.648 1.7209 10.7666 1.87035 10.844C2.01981 10.9215 2.18825 10.9547 2.3559 10.9397C2.54321 10.9232 2.7764 10.8999 3.05362 10.8673C3.17428 10.8536 3.28567 10.7959 3.36659 10.7053C3.44751 10.6147 3.49229 10.4975 3.49241 10.376V6.66583" fill="#2A3557"/>
<path d="M3.4727 12.6609C4.5163 13.4205 5.74957 13.8764 7.03607 13.9782C8.32257 14.0801 9.61216 13.8239 10.7622 13.2379C11.9122 12.652 12.8777 11.7592 13.5521 10.6583C14.2264 9.55737 14.5832 8.29127 14.583 7.00007C14.583 6.83888 14.5755 6.67951 14.5647 6.521C12.0088 10.3349 7.28949 12.1181 3.47266 12.661" fill="#BFCFDA"/>
</svg>
