<svg width="15" height="14" viewBox="0 0 15 14" fill="none" xmlns="http://www.w3.org/2000/svg">
<path d="M14.583 7C14.583 10.8658 11.4488 14 7.58301 14C3.71723 14 0.583008 10.8658 0.583008 7C0.583008 3.13423 3.71723 0 7.58301 0C11.4496 0 14.583 3.13423 14.583 7Z" fill="#2081E2"/>
<path d="M4.03636 7.23505L4.06657 7.18759L5.88755 4.3389C5.91415 4.29718 5.97673 4.3015 5.99686 4.3468C6.30108 5.0286 6.56358 5.87652 6.4406 6.4044C6.3881 6.62158 6.24427 6.91574 6.08245 7.18759C6.06159 7.22715 6.03858 7.26599 6.01413 7.30338C6.00262 7.32064 5.9832 7.33072 5.96234 7.33072H4.08958C4.03924 7.33072 4.00976 7.27605 4.03636 7.23505Z" fill="white"/>
<path d="M12.1532 7.76483V8.21576C12.1532 8.24164 12.1374 8.26466 12.1143 8.27473C11.9734 8.33515 11.4908 8.55666 11.2902 8.83569C10.7781 9.5484 10.3869 10.5675 9.51232 10.5675H5.86391C4.5708 10.5675 3.52295 9.51605 3.52295 8.21863V8.17691C3.52295 8.1424 3.551 8.11435 3.58553 8.11435H5.61937C5.65964 8.11435 5.68914 8.15175 5.68554 8.1913C5.67116 8.32364 5.69561 8.45884 5.75817 8.58183C5.87901 8.82706 6.12928 8.98025 6.3997 8.98025H7.40655V8.19418H6.4112C6.36014 8.19418 6.32993 8.13521 6.35943 8.09349C6.37021 8.07695 6.38243 8.05969 6.39538 8.04028C6.4896 7.90651 6.62407 7.69866 6.75785 7.46204C6.84918 7.3024 6.93764 7.13194 7.00884 6.96078C7.02323 6.92986 7.03474 6.89822 7.04624 6.86728C7.06567 6.81263 7.08579 6.76156 7.10018 6.71051C7.11456 6.66736 7.12607 6.62204 7.13758 6.57961C7.17138 6.43434 7.18577 6.28043 7.18577 6.12077C7.18577 6.0582 7.18289 5.99276 7.17714 5.93018C7.17426 5.86186 7.16563 5.79354 7.15699 5.72522C7.15124 5.6648 7.14046 5.60511 7.12895 5.54255C7.11456 5.45121 7.09443 5.3606 7.0714 5.26925L7.0635 5.23474C7.04624 5.17217 7.03186 5.11247 7.01172 5.04991C6.95491 4.85356 6.88945 4.66226 6.82042 4.48319C6.79525 4.41199 6.76647 4.34367 6.73771 4.27535C6.69527 4.1725 6.65212 4.07901 6.61258 3.99054C6.59243 3.95027 6.57517 3.91359 6.55792 3.87619C6.5385 3.83376 6.51836 3.79134 6.49823 3.75105C6.48384 3.72012 6.46729 3.69136 6.45579 3.6626L6.33281 3.43533C6.31555 3.40441 6.34432 3.36773 6.37811 3.37708L7.14764 3.58565H7.14981C7.15124 3.58565 7.15197 3.58636 7.15268 3.58636L7.25409 3.61441L7.36556 3.64605L7.40655 3.65756V3.20016C7.40655 2.97937 7.58348 2.80029 7.80211 2.80029C7.91142 2.80029 8.01066 2.84488 8.08186 2.91752C8.15306 2.99016 8.19766 3.08941 8.19766 3.20016V3.87907L8.27964 3.90208C8.28612 3.90424 8.29259 3.90712 8.29835 3.91143C8.31848 3.92653 8.34724 3.94884 8.38392 3.97615C8.4127 3.99917 8.44362 4.02722 8.48102 4.05598C8.55509 4.11569 8.64354 4.19264 8.74064 4.28109C8.76653 4.3034 8.79171 4.3264 8.81472 4.34942C8.93986 4.46592 9.08009 4.60257 9.21387 4.7536C9.25127 4.79602 9.28795 4.83917 9.32534 4.88449C9.36274 4.93052 9.4023 4.97583 9.43681 5.02114C9.48213 5.08155 9.53102 5.14411 9.57345 5.20957C9.5936 5.24049 9.61661 5.27213 9.63603 5.30306C9.69068 5.38577 9.73887 5.47135 9.7849 5.55692C9.80431 5.59648 9.82446 5.63963 9.84171 5.68207C9.89278 5.79642 9.93305 5.91293 9.95894 6.02944C9.96685 6.05461 9.97261 6.08194 9.97549 6.10639V6.11213C9.98411 6.14667 9.98698 6.18335 9.98986 6.22074C10.0014 6.34012 9.99562 6.4595 9.96973 6.57961C9.95894 6.63068 9.94456 6.67885 9.9273 6.72992C9.91003 6.77883 9.89278 6.82988 9.87049 6.87807C9.82734 6.97803 9.77627 7.07801 9.71585 7.1715C9.69644 7.20602 9.67343 7.24269 9.65041 7.27721C9.62524 7.31389 9.59936 7.34843 9.57633 7.38223C9.54469 7.42538 9.51089 7.47068 9.47637 7.51095C9.44545 7.55339 9.41379 7.59582 9.37927 7.63322C9.3311 7.69003 9.28507 7.74397 9.23688 7.79576C9.20812 7.82956 9.17719 7.86408 9.14554 7.895C9.11461 7.92952 9.08297 7.96044 9.05421 7.98921C9.00602 8.0374 8.96575 8.07479 8.93194 8.10572L8.85283 8.17836C8.84133 8.18843 8.82623 8.19418 8.81041 8.19418H8.19766V8.98025H8.96862C9.14123 8.98025 9.3052 8.91912 9.43753 8.80693C9.48284 8.76737 9.68062 8.5962 9.91435 8.33802C9.92226 8.32939 9.93234 8.32292 9.94383 8.32004L12.0733 7.70441C12.1129 7.6929 12.1532 7.72311 12.1532 7.76483Z" fill="white"/>
</svg>
