<svg width="96" height="24" viewBox="0 0 96 24" fill="none" xmlns="http://www.w3.org/2000/svg">
<rect x="0.919434" width="94.6637" height="24" rx="5" fill="#F2A1B0"/>
<path d="M12.7944 17.2498L9.48618 13.9956C9.36897 13.8783 9.21 13.8125 9.04424 13.8125C8.87848 13.8125 8.71951 13.8783 8.6023 13.9956C8.48509 14.1128 8.41924 14.2717 8.41924 14.4375C8.41924 14.6033 8.48509 14.7622 8.6023 14.8794L12.5356 18.7587C12.6516 18.8747 12.7894 18.9668 12.9411 19.0296C13.0927 19.0924 13.2553 19.1248 13.4194 19.1248C13.5836 19.1248 13.7461 19.0924 13.8978 19.0296C14.0494 18.9668 14.1872 18.8747 14.3033 18.7587C14.4194 18.6426 14.5115 18.5048 14.5743 18.3531C14.6371 18.2015 14.6694 18.0389 14.6694 17.8748C14.6694 17.7106 14.6371 17.5481 14.5743 17.3964C14.5115 17.2448 14.4194 17.107 14.3033 16.9909L10.3701 13.1117C10.0184 12.76 9.54152 12.5625 9.04424 12.5625C8.54696 12.5625 8.07005 12.76 7.71842 13.1117C7.36679 13.4633 7.16924 13.9402 7.16924 14.4375C7.16924 14.9348 7.36679 15.4117 7.71842 15.7633L10.9194 18.9685" stroke="#1C2847" stroke-width="0.625" stroke-linecap="round" stroke-linejoin="round"/>
<path d="M29.5831 13.332H27.9273C27.9273 9.65087 24.9323 6.65584 21.2513 6.65584C17.5702 6.65584 14.5752 9.65087 14.5752 13.332H12.9194C12.9194 8.73756 16.6569 5 21.2513 5C25.8456 5 29.5831 8.73756 29.5831 13.332Z" fill="#1C2847"/>
<path d="M21.2514 19.0001C18.1172 19.0001 15.5679 16.4508 15.5679 13.3165C15.5679 10.1822 18.1172 7.63281 21.2514 7.63281C24.3857 7.63281 26.935 10.1822 26.935 13.3165C26.935 16.4508 24.3857 19.0001 21.2514 19.0001ZM21.2514 9.28866C19.0305 9.28866 17.2237 11.0955 17.2237 13.3165C17.2237 15.5375 19.0305 17.3443 21.2514 17.3443C23.4724 17.3443 25.2792 15.5375 25.2792 13.3165C25.2792 11.0955 23.4724 9.28866 21.2514 9.28866Z" fill="#1C2847"/>
<path d="M42.8887 15.6396V17H35.9775V15.6396H42.8887ZM42.7314 8.10645L36.6133 17H35.4648V15.9131L41.6035 7.04688H42.7314V8.10645ZM42.0957 7.04688V8.41406H35.5059V7.04688H42.0957ZM46.0947 7.04688V17H44.3789V7.04688H46.0947ZM52.0762 7.04688L48.043 11.8389L45.7461 14.2725L45.4453 12.5703L47.0859 10.5469L49.9844 7.04688H52.0762ZM50.2305 17L46.9561 12.2832L48.1387 11.1143L52.2676 17H50.2305ZM60.4912 13.2881H57.9004V11.9277H60.4912C60.9424 11.9277 61.307 11.8548 61.585 11.709C61.863 11.5632 62.0658 11.3626 62.1934 11.1074C62.3255 10.8477 62.3916 10.5514 62.3916 10.2188C62.3916 9.9043 62.3255 9.61035 62.1934 9.33691C62.0658 9.05892 61.863 8.83561 61.585 8.66699C61.307 8.49837 60.9424 8.41406 60.4912 8.41406H58.4268V17H56.7109V7.04688H60.4912C61.2614 7.04688 61.9154 7.18359 62.4531 7.45703C62.9954 7.72591 63.4079 8.09961 63.6904 8.57812C63.973 9.05208 64.1143 9.5944 64.1143 10.2051C64.1143 10.8477 63.973 11.3991 63.6904 11.8594C63.4079 12.3197 62.9954 12.6729 62.4531 12.9189C61.9154 13.165 61.2614 13.2881 60.4912 13.2881ZM67.1426 11.0117V17H65.4951V9.60352H67.0674L67.1426 11.0117ZM69.4053 9.55566L69.3916 11.0869C69.2913 11.0687 69.182 11.055 69.0635 11.0459C68.9495 11.0368 68.8356 11.0322 68.7217 11.0322C68.4391 11.0322 68.1908 11.0732 67.9766 11.1553C67.7624 11.2327 67.5824 11.3467 67.4365 11.4971C67.2952 11.6429 67.1859 11.8206 67.1084 12.0303C67.0309 12.2399 66.9854 12.4746 66.9717 12.7344L66.5957 12.7617C66.5957 12.2969 66.6413 11.8662 66.7324 11.4697C66.8236 11.0732 66.9603 10.7246 67.1426 10.4238C67.3294 10.123 67.5618 9.88835 67.8398 9.71973C68.1224 9.55111 68.4482 9.4668 68.8174 9.4668C68.9176 9.4668 69.0247 9.47591 69.1387 9.49414C69.2572 9.51237 69.346 9.53288 69.4053 9.55566ZM69.9453 13.3838V13.2266C69.9453 12.6934 70.0228 12.1989 70.1777 11.7432C70.3327 11.2829 70.556 10.8841 70.8477 10.5469C71.1439 10.2051 71.5039 9.94076 71.9277 9.75391C72.3561 9.5625 72.8392 9.4668 73.377 9.4668C73.9193 9.4668 74.4023 9.5625 74.8262 9.75391C75.2546 9.94076 75.6169 10.2051 75.9131 10.5469C76.2093 10.8841 76.4349 11.2829 76.5898 11.7432C76.7448 12.1989 76.8223 12.6934 76.8223 13.2266V13.3838C76.8223 13.917 76.7448 14.4115 76.5898 14.8672C76.4349 15.3229 76.2093 15.7217 75.9131 16.0635C75.6169 16.4007 75.2568 16.665 74.833 16.8564C74.4092 17.0433 73.9284 17.1367 73.3906 17.1367C72.8483 17.1367 72.363 17.0433 71.9346 16.8564C71.5107 16.665 71.1507 16.4007 70.8545 16.0635C70.5583 15.7217 70.3327 15.3229 70.1777 14.8672C70.0228 14.4115 69.9453 13.917 69.9453 13.3838ZM71.5928 13.2266V13.3838C71.5928 13.7165 71.627 14.0309 71.6953 14.3271C71.7637 14.6234 71.8708 14.8831 72.0166 15.1064C72.1624 15.3298 72.3493 15.5052 72.5771 15.6328C72.805 15.7604 73.0762 15.8242 73.3906 15.8242C73.696 15.8242 73.9603 15.7604 74.1836 15.6328C74.4115 15.5052 74.5983 15.3298 74.7441 15.1064C74.89 14.8831 74.9971 14.6234 75.0654 14.3271C75.1383 14.0309 75.1748 13.7165 75.1748 13.3838V13.2266C75.1748 12.8984 75.1383 12.5885 75.0654 12.2969C74.9971 12.0007 74.8877 11.7386 74.7373 11.5107C74.5915 11.2829 74.4046 11.1051 74.1768 10.9775C73.9535 10.8454 73.6868 10.7793 73.377 10.7793C73.0671 10.7793 72.7982 10.8454 72.5703 10.9775C72.347 11.1051 72.1624 11.2829 72.0166 11.5107C71.8708 11.7386 71.7637 12.0007 71.6953 12.2969C71.627 12.5885 71.5928 12.8984 71.5928 13.2266ZM77.8887 13.3838V13.2266C77.8887 12.6934 77.9661 12.1989 78.1211 11.7432C78.276 11.2829 78.4993 10.8841 78.791 10.5469C79.0872 10.2051 79.4473 9.94076 79.8711 9.75391C80.2995 9.5625 80.7826 9.4668 81.3203 9.4668C81.8626 9.4668 82.3457 9.5625 82.7695 9.75391C83.1979 9.94076 83.5602 10.2051 83.8564 10.5469C84.1527 10.8841 84.3783 11.2829 84.5332 11.7432C84.6882 12.1989 84.7656 12.6934 84.7656 13.2266V13.3838C84.7656 13.917 84.6882 14.4115 84.5332 14.8672C84.3783 15.3229 84.1527 15.7217 83.8564 16.0635C83.5602 16.4007 83.2002 16.665 82.7764 16.8564C82.3525 17.0433 81.8717 17.1367 81.334 17.1367C80.7917 17.1367 80.3063 17.0433 79.8779 16.8564C79.4541 16.665 79.0941 16.4007 78.7979 16.0635C78.5016 15.7217 78.276 15.3229 78.1211 14.8672C77.9661 14.4115 77.8887 13.917 77.8887 13.3838ZM79.5361 13.2266V13.3838C79.5361 13.7165 79.5703 14.0309 79.6387 14.3271C79.707 14.6234 79.8141 14.8831 79.96 15.1064C80.1058 15.3298 80.2926 15.5052 80.5205 15.6328C80.7484 15.7604 81.0195 15.8242 81.334 15.8242C81.6393 15.8242 81.9036 15.7604 82.127 15.6328C82.3548 15.5052 82.5417 15.3298 82.6875 15.1064C82.8333 14.8831 82.9404 14.6234 83.0088 14.3271C83.0817 14.0309 83.1182 13.7165 83.1182 13.3838V13.2266C83.1182 12.8984 83.0817 12.5885 83.0088 12.2969C82.9404 12.0007 82.8311 11.7386 82.6807 11.5107C82.5348 11.2829 82.348 11.1051 82.1201 10.9775C81.8968 10.8454 81.6302 10.7793 81.3203 10.7793C81.0104 10.7793 80.7415 10.8454 80.5137 10.9775C80.2904 11.1051 80.1058 11.2829 79.96 11.5107C79.8141 11.7386 79.707 12.0007 79.6387 12.2969C79.5703 12.5885 79.5361 12.8984 79.5361 13.2266ZM88.375 17H86.7275V8.89258C86.7275 8.34115 86.8301 7.87858 87.0352 7.50488C87.2448 7.12663 87.5433 6.8418 87.9307 6.65039C88.318 6.45443 88.776 6.35645 89.3047 6.35645C89.4688 6.35645 89.6305 6.36784 89.79 6.39062C89.9495 6.40885 90.1045 6.43848 90.2549 6.47949L90.2139 7.75098C90.1227 7.72819 90.0225 7.71224 89.9131 7.70312C89.8083 7.69401 89.6943 7.68945 89.5713 7.68945C89.3206 7.68945 89.1042 7.7373 88.9219 7.83301C88.7441 7.92415 88.6074 8.05859 88.5117 8.23633C88.4206 8.41406 88.375 8.63281 88.375 8.89258V17ZM89.8994 9.60352V10.8066H85.5928V9.60352H89.8994Z" fill="#1C2847"/>
</svg>
