<svg width="20" height="17" viewBox="0 0 20 17" fill="none" xmlns="http://www.w3.org/2000/svg">
<path d="M19.2643 10.022H17.3719C17.3719 5.81512 13.949 2.39233 9.74202 2.39233C5.53502 2.39233 2.11212 5.81512 2.11212 10.022H0.219727C0.219727 4.77136 4.49123 0.5 9.74202 0.5C14.9928 0.5 19.2643 4.77136 19.2643 10.022Z" fill="white"/>
<path d="M9.73977 16.5001C6.15771 16.5001 3.24414 13.5866 3.24414 10.0047C3.24414 6.42275 6.15771 3.50928 9.73977 3.50928C13.3218 3.50928 16.2354 6.42275 16.2354 10.0047C16.2354 13.5866 13.3218 16.5001 9.73977 16.5001V16.5001ZM9.73977 5.40161C7.2015 5.40161 5.13654 7.46651 5.13654 10.0047C5.13654 12.5429 7.2015 14.6078 9.73977 14.6078C12.278 14.6078 14.343 12.5429 14.343 10.0047C14.343 7.46651 12.278 5.40161 9.73977 5.40161V5.40161Z" fill="white"/>
</svg>
