<svg width="154" height="41" viewBox="0 0 154 41" fill="none" xmlns="http://www.w3.org/2000/svg">
<path d="M12.6709 11.2998V13.0698L3.69873 26.9248H12.5488V29H0.744629V27.1201L9.68018 13.3262H1.0498V11.2998H12.6709ZM15.7715 11.2998H18.1763V29H15.7715V11.2998ZM29.2969 29H26.2573L18.7012 19.4541L25.7568 11.2998H28.6743L21.6797 19.4053L29.2969 29ZM39.7217 27.3765C39.1683 28.0112 38.5783 28.4751 37.9517 28.7681C37.3332 29.0529 36.6496 29.1953 35.9009 29.1953C34.1024 29.1953 32.7108 28.6379 31.7261 27.5229C30.7414 26.408 30.249 24.8252 30.249 22.7744C30.249 20.6423 30.8309 18.9699 31.9946 17.7573C33.1665 16.5366 34.786 15.9263 36.853 15.9263C37.6017 15.9263 38.5091 16.0443 39.5752 16.2803V10.25H41.9189V28.9756H40.0513L39.7217 27.3765ZM36.0474 27.1201C36.8693 27.1201 37.5854 26.9004 38.1958 26.4609C38.8143 26.0215 39.2741 25.403 39.5752 24.6055V18.3799C38.9079 18.2171 38.4074 18.1154 38.0737 18.0747C37.7401 18.0259 37.3413 18.0015 36.8774 18.0015C35.5428 18.0015 34.5052 18.4246 33.7646 19.271C33.0241 20.1092 32.6538 21.277 32.6538 22.7744C32.6538 24.1579 32.9468 25.228 33.5327 25.9849C34.1268 26.7417 34.965 27.1201 36.0474 27.1201ZM47.9248 17.9526C48.3724 17.2853 48.8973 16.7808 49.4995 16.439C50.1017 16.0972 50.7609 15.9263 51.4771 15.9263C51.9572 15.9263 52.5146 16.0158 53.1494 16.1948L52.7222 18.502C51.9084 18.3392 51.359 18.2537 51.0742 18.2456C50.3581 18.2456 49.764 18.3799 49.292 18.6484C48.8281 18.917 48.4294 19.3524 48.0957 19.9546V29H45.752V16.146H47.6318L47.9248 17.9526ZM60.0098 15.9019C61.9385 15.9019 63.4359 16.4878 64.502 17.6597C65.568 18.8234 66.1011 20.4551 66.1011 22.5547C66.1011 24.6543 65.568 26.286 64.502 27.4497C63.4359 28.6134 61.9385 29.1953 60.0098 29.1953C58.0729 29.1953 56.5715 28.6134 55.5054 27.4497C54.4393 26.286 53.9062 24.6543 53.9062 22.5547C53.9062 20.4551 54.4393 18.8234 55.5054 17.6597C56.5715 16.4878 58.0729 15.9019 60.0098 15.9019ZM60.0098 17.9771C58.8053 17.9771 57.8857 18.3677 57.251 19.1489C56.6243 19.9302 56.311 21.0654 56.311 22.5547C56.311 24.0358 56.6243 25.167 57.251 25.9482C57.8857 26.7295 58.8053 27.1201 60.0098 27.1201C61.2061 27.1201 62.1216 26.7295 62.7563 25.9482C63.3911 25.167 63.7085 24.0358 63.7085 22.5547C63.7085 21.0736 63.3911 19.9424 62.7563 19.1611C62.1216 18.3717 61.2061 17.9771 60.0098 17.9771ZM75.293 15.9507C77.0915 15.9507 78.479 16.5081 79.4556 17.623C80.4403 18.738 80.9326 20.3208 80.9326 22.3716C80.9326 24.5037 80.3507 26.1802 79.187 27.4009C78.0233 28.6134 76.4079 29.2197 74.3408 29.2197C73.5596 29.2197 72.6481 29.1058 71.6064 28.8779V34.896H69.2627V16.1704H71.1426L71.46 17.7695C72.0133 17.1348 72.5952 16.675 73.2056 16.3901C73.8241 16.0972 74.5199 15.9507 75.293 15.9507ZM74.3164 27.1445C75.651 27.1445 76.6886 26.7254 77.4292 25.8872C78.1698 25.049 78.54 23.8771 78.54 22.3716C78.54 20.9881 78.243 19.918 77.6489 19.1611C77.0549 18.4043 76.2166 18.0259 75.1343 18.0259C74.2879 18.0259 73.5596 18.2375 72.9492 18.6606C72.3389 19.0838 71.8913 19.7064 71.6064 20.5283V26.7783C72.29 26.9411 72.7905 27.0428 73.1079 27.0835C73.4253 27.1242 73.8281 27.1445 74.3164 27.1445Z" fill="white"/>
<rect x="85" y="26.4072" width="3.32855" height="3.32855" transform="rotate(-45 85 26.4072)" fill="white"/>
<path d="M93.7578 11.3975H96.1016V13.8022H93.7578V11.3975ZM93.7578 16.146H96.1016V29H93.7578V16.146ZM105.33 15.9019C107.259 15.9019 108.756 16.4878 109.822 17.6597C110.888 18.8234 111.421 20.4551 111.421 22.5547C111.421 24.6543 110.888 26.286 109.822 27.4497C108.756 28.6134 107.259 29.1953 105.33 29.1953C103.393 29.1953 101.892 28.6134 100.826 27.4497C99.7596 26.286 99.2266 24.6543 99.2266 22.5547C99.2266 20.4551 99.7596 18.8234 100.826 17.6597C101.892 16.4878 103.393 15.9019 105.33 15.9019ZM105.33 17.9771C104.126 17.9771 103.206 18.3677 102.571 19.1489C101.945 19.9302 101.631 21.0654 101.631 22.5547C101.631 24.0358 101.945 25.167 102.571 25.9482C103.206 26.7295 104.126 27.1201 105.33 27.1201C106.526 27.1201 107.442 26.7295 108.077 25.9482C108.711 25.167 109.029 24.0358 109.029 22.5547C109.029 21.0736 108.711 19.9424 108.077 19.1611C107.442 18.3717 106.526 17.9771 105.33 17.9771Z" fill="white"/>
<rect width="8.42647" height="8.42647" transform="matrix(0.707103 -0.707111 0.707103 0.707111 134.827 27.542)" fill="white"/>
<path d="M153.217 22.9765C153.488 22.9765 153.708 22.7569 153.701 22.4862C153.596 18.5595 152.24 14.8196 149.9 12.033C147.462 9.13055 144.155 7.5 140.707 7.5C137.259 7.5 133.953 9.13055 131.515 12.033C129.174 14.8196 127.818 18.5595 127.714 22.4862C127.706 22.7569 127.927 22.9765 128.197 22.9765V22.9765C128.468 22.9765 128.687 22.7568 128.695 22.4862C128.799 18.8692 130.051 15.426 132.208 12.8583C134.462 10.1748 137.519 9.20241 140.707 9.20241C143.895 9.20241 146.952 10.1748 149.206 12.8583C151.363 15.426 152.616 18.8692 152.72 22.4862C152.728 22.7569 152.946 22.9765 153.217 22.9765V22.9765Z" fill="white"/>
</svg>
