<svg width="88" height="36" viewBox="0 0 88 36" fill="none" xmlns="http://www.w3.org/2000/svg">
<path fill-rule="evenodd" clip-rule="evenodd" d="M17.5 0.5C7.83502 0.5 0 8.33502 0 18V35.5H35V18C35 8.33502 27.165 0.5 17.5 0.5ZM8.76903 18.5H5.99991V21.2692H8.76893V21.2692H11.5381H11.5381V22.6537H9.69183V25.4229H7.84621V27.5H6V29.5765H5.99991V32.3456H8.76903V32.3455H11.5381H14.3072V29.5764H11.5381H8.76912V28.192H10.6153V25.4229H12.461V22.6537H14.3072V19.8846H14.3072V18.5001H11.5381H8.76903V18.5ZM18.9227 18.5001H16.1535V21.2692H18.9227V18.5001ZM16.1538 21.2693H18.9229V24.0384H20.3074V21.2693H22.6148V18.5002H25.3839V21.2693H23.0765V24.0384H20.7692V26.8075H23.0765V29.5766H25.3839V32.3457H22.6148V29.5766H20.3074V26.8075H18.9229V29.5766V32.3457H16.1538V29.5766V26.8075V24.0384V21.2693ZM29.9991 29.5765H27.23V32.3456H29.9991V29.5765Z" fill="white" fill-opacity="0.8"/>
<path d="M44.4297 30.8594V20.5H45.8828V32.5H44.5547L44.4297 30.8594ZM38.7422 28.3672V28.2031C38.7422 27.5573 38.8203 26.9714 38.9766 26.4453C39.138 25.9141 39.3646 25.4583 39.6562 25.0781C39.9531 24.6979 40.3047 24.4062 40.7109 24.2031C41.1224 23.9948 41.5807 23.8906 42.0859 23.8906C42.6172 23.8906 43.0807 23.9844 43.4766 24.1719C43.8776 24.3542 44.2161 24.6224 44.4922 24.9766C44.7734 25.3255 44.9948 25.7474 45.1562 26.2422C45.3177 26.737 45.4297 27.2969 45.4922 27.9219V28.6406C45.4349 29.2604 45.3229 29.8177 45.1562 30.3125C44.9948 30.8073 44.7734 31.2292 44.4922 31.5781C44.2161 31.9271 43.8776 32.1953 43.4766 32.3828C43.0755 32.5651 42.6068 32.6562 42.0703 32.6562C41.5755 32.6562 41.1224 32.5495 40.7109 32.3359C40.3047 32.1224 39.9531 31.8229 39.6562 31.4375C39.3646 31.0521 39.138 30.599 38.9766 30.0781C38.8203 29.5521 38.7422 28.9818 38.7422 28.3672ZM40.1953 28.2031V28.3672C40.1953 28.7891 40.237 29.1849 40.3203 29.5547C40.4089 29.9245 40.5443 30.25 40.7266 30.5312C40.9089 30.8125 41.1406 31.0339 41.4219 31.1953C41.7031 31.3516 42.0391 31.4297 42.4297 31.4297C42.9089 31.4297 43.3021 31.3281 43.6094 31.125C43.9219 30.9219 44.1719 30.6536 44.3594 30.3203C44.5469 29.987 44.6927 29.625 44.7969 29.2344V27.3516C44.7344 27.0651 44.6432 26.7891 44.5234 26.5234C44.4089 26.2526 44.2578 26.013 44.0703 25.8047C43.888 25.5911 43.6615 25.4219 43.3906 25.2969C43.125 25.1719 42.8099 25.1094 42.4453 25.1094C42.0495 25.1094 41.7083 25.1927 41.4219 25.3594C41.1406 25.5208 40.9089 25.7448 40.7266 26.0312C40.5443 26.3125 40.4089 26.6406 40.3203 27.0156C40.237 27.3854 40.1953 27.7812 40.1953 28.2031ZM49.5781 25.375V32.5H48.1328V24.0469H49.5391L49.5781 25.375ZM52.2188 24L52.2109 25.3438C52.0911 25.3177 51.9766 25.3021 51.8672 25.2969C51.763 25.2865 51.6432 25.2812 51.5078 25.2812C51.1745 25.2812 50.8802 25.3333 50.625 25.4375C50.3698 25.5417 50.1536 25.6875 49.9766 25.875C49.7995 26.0625 49.6589 26.2865 49.5547 26.5469C49.4557 26.8021 49.3906 27.0833 49.3594 27.3906L48.9531 27.625C48.9531 27.1146 49.0026 26.6354 49.1016 26.1875C49.2057 25.7396 49.3646 25.3438 49.5781 25C49.7917 24.651 50.0625 24.3802 50.3906 24.1875C50.724 23.9896 51.1198 23.8906 51.5781 23.8906C51.6823 23.8906 51.8021 23.9036 51.9375 23.9297C52.0729 23.9505 52.1667 23.974 52.2188 24ZM53.0156 28.3672V28.1875C53.0156 27.5781 53.1042 27.013 53.2812 26.4922C53.4583 25.9661 53.7135 25.5104 54.0469 25.125C54.3802 24.7344 54.7839 24.4323 55.2578 24.2188C55.7318 24 56.263 23.8906 56.8516 23.8906C57.4453 23.8906 57.9792 24 58.4531 24.2188C58.9323 24.4323 59.3385 24.7344 59.6719 25.125C60.0104 25.5104 60.2682 25.9661 60.4453 26.4922C60.6224 27.013 60.7109 27.5781 60.7109 28.1875V28.3672C60.7109 28.9766 60.6224 29.5417 60.4453 30.0625C60.2682 30.5833 60.0104 31.0391 59.6719 31.4297C59.3385 31.8151 58.9349 32.1172 58.4609 32.3359C57.9922 32.5495 57.4609 32.6562 56.8672 32.6562C56.2734 32.6562 55.7396 32.5495 55.2656 32.3359C54.7917 32.1172 54.3854 31.8151 54.0469 31.4297C53.7135 31.0391 53.4583 30.5833 53.2812 30.0625C53.1042 29.5417 53.0156 28.9766 53.0156 28.3672ZM54.4609 28.1875V28.3672C54.4609 28.7891 54.5104 29.1875 54.6094 29.5625C54.7083 29.9323 54.8568 30.2604 55.0547 30.5469C55.2578 30.8333 55.5104 31.0599 55.8125 31.2266C56.1146 31.388 56.4661 31.4688 56.8672 31.4688C57.263 31.4688 57.6094 31.388 57.9062 31.2266C58.2083 31.0599 58.4583 30.8333 58.6562 30.5469C58.8542 30.2604 59.0026 29.9323 59.1016 29.5625C59.2057 29.1875 59.2578 28.7891 59.2578 28.3672V28.1875C59.2578 27.7708 59.2057 27.3776 59.1016 27.0078C59.0026 26.6328 58.8516 26.3021 58.6484 26.0156C58.4505 25.724 58.2005 25.4948 57.8984 25.3281C57.6016 25.1615 57.2526 25.0781 56.8516 25.0781C56.4557 25.0781 56.1068 25.1615 55.8047 25.3281C55.5078 25.4948 55.2578 25.724 55.0547 26.0156C54.8568 26.3021 54.7083 26.6328 54.6094 27.0078C54.5104 27.3776 54.4609 27.7708 54.4609 28.1875ZM63.9688 25.6719V35.75H62.5156V24.0469H63.8438L63.9688 25.6719ZM69.6641 28.2031V28.3672C69.6641 28.9818 69.5911 29.5521 69.4453 30.0781C69.2995 30.599 69.0859 31.0521 68.8047 31.4375C68.5286 31.8229 68.1875 32.1224 67.7812 32.3359C67.375 32.5495 66.9089 32.6562 66.3828 32.6562C65.8464 32.6562 65.3724 32.5677 64.9609 32.3906C64.5495 32.2135 64.2005 31.9557 63.9141 31.6172C63.6276 31.2786 63.3984 30.8724 63.2266 30.3984C63.0599 29.9245 62.9453 29.3906 62.8828 28.7969V27.9219C62.9453 27.2969 63.0625 26.737 63.2344 26.2422C63.4062 25.7474 63.6328 25.3255 63.9141 24.9766C64.2005 24.6224 64.5469 24.3542 64.9531 24.1719C65.3594 23.9844 65.8281 23.8906 66.3594 23.8906C66.8906 23.8906 67.362 23.9948 67.7734 24.2031C68.1849 24.4062 68.5312 24.6979 68.8125 25.0781C69.0938 25.4583 69.3047 25.9141 69.4453 26.4453C69.5911 26.9714 69.6641 27.5573 69.6641 28.2031ZM68.2109 28.3672V28.2031C68.2109 27.7812 68.1667 27.3854 68.0781 27.0156C67.9896 26.6406 67.8516 26.3125 67.6641 26.0312C67.4818 25.7448 67.2474 25.5208 66.9609 25.3594C66.6745 25.1927 66.3333 25.1094 65.9375 25.1094C65.5729 25.1094 65.2552 25.1719 64.9844 25.2969C64.7188 25.4219 64.4922 25.5911 64.3047 25.8047C64.1172 26.013 63.9635 26.2526 63.8438 26.5234C63.7292 26.7891 63.6432 27.0651 63.5859 27.3516V29.375C63.6901 29.7396 63.8359 30.0833 64.0234 30.4062C64.2109 30.724 64.4609 30.9818 64.7734 31.1797C65.0859 31.3724 65.4792 31.4688 65.9531 31.4688C66.3438 31.4688 66.6797 31.388 66.9609 31.2266C67.2474 31.0599 67.4818 30.8333 67.6641 30.5469C67.8516 30.2604 67.9896 29.9323 68.0781 29.5625C68.1667 29.1875 68.2109 28.7891 68.2109 28.3672ZM71.5312 31.7344C71.5312 31.4896 71.6068 31.2839 71.7578 31.1172C71.9141 30.9453 72.138 30.8594 72.4297 30.8594C72.7214 30.8594 72.9427 30.9453 73.0938 31.1172C73.25 31.2839 73.3281 31.4896 73.3281 31.7344C73.3281 31.974 73.25 32.1771 73.0938 32.3438C72.9427 32.5104 72.7214 32.5938 72.4297 32.5938C72.138 32.5938 71.9141 32.5104 71.7578 32.3438C71.6068 32.1771 71.5312 31.974 71.5312 31.7344ZM77.2969 24.0469V32.5H75.8438V24.0469H77.2969ZM75.7344 21.8047C75.7344 21.5703 75.8047 21.3724 75.9453 21.2109C76.0911 21.0495 76.3047 20.9688 76.5859 20.9688C76.862 20.9688 77.0729 21.0495 77.2188 21.2109C77.3698 21.3724 77.4453 21.5703 77.4453 21.8047C77.4453 22.0286 77.3698 22.2214 77.2188 22.3828C77.0729 22.5391 76.862 22.6172 76.5859 22.6172C76.3047 22.6172 76.0911 22.5391 75.9453 22.3828C75.8047 22.2214 75.7344 22.0286 75.7344 21.8047ZM79.2344 28.3672V28.1875C79.2344 27.5781 79.3229 27.013 79.5 26.4922C79.6771 25.9661 79.9323 25.5104 80.2656 25.125C80.599 24.7344 81.0026 24.4323 81.4766 24.2188C81.9505 24 82.4818 23.8906 83.0703 23.8906C83.6641 23.8906 84.1979 24 84.6719 24.2188C85.151 24.4323 85.5573 24.7344 85.8906 25.125C86.2292 25.5104 86.487 25.9661 86.6641 26.4922C86.8411 27.013 86.9297 27.5781 86.9297 28.1875V28.3672C86.9297 28.9766 86.8411 29.5417 86.6641 30.0625C86.487 30.5833 86.2292 31.0391 85.8906 31.4297C85.5573 31.8151 85.1536 32.1172 84.6797 32.3359C84.2109 32.5495 83.6797 32.6562 83.0859 32.6562C82.4922 32.6562 81.9583 32.5495 81.4844 32.3359C81.0104 32.1172 80.6042 31.8151 80.2656 31.4297C79.9323 31.0391 79.6771 30.5833 79.5 30.0625C79.3229 29.5417 79.2344 28.9766 79.2344 28.3672ZM80.6797 28.1875V28.3672C80.6797 28.7891 80.7292 29.1875 80.8281 29.5625C80.9271 29.9323 81.0755 30.2604 81.2734 30.5469C81.4766 30.8333 81.7292 31.0599 82.0312 31.2266C82.3333 31.388 82.6849 31.4688 83.0859 31.4688C83.4818 31.4688 83.8281 31.388 84.125 31.2266C84.4271 31.0599 84.6771 30.8333 84.875 30.5469C85.0729 30.2604 85.2214 29.9323 85.3203 29.5625C85.4245 29.1875 85.4766 28.7891 85.4766 28.3672V28.1875C85.4766 27.7708 85.4245 27.3776 85.3203 27.0078C85.2214 26.6328 85.0703 26.3021 84.8672 26.0156C84.6693 25.724 84.4193 25.4948 84.1172 25.3281C83.8203 25.1615 83.4714 25.0781 83.0703 25.0781C82.6745 25.0781 82.3255 25.1615 82.0234 25.3281C81.7266 25.4948 81.4766 25.724 81.2734 26.0156C81.0755 26.3021 80.9271 26.6328 80.8281 27.0078C80.7292 27.3776 80.6797 27.7708 80.6797 28.1875Z" fill="white" fill-opacity="0.8"/>
</svg>
