<?xml version="1.0" standalone="no"?>
<!DOCTYPE svg PUBLIC "-//W3C//DTD SVG 20010904//EN"
 "http://www.w3.org/TR/2001/REC-SVG-20010904/DTD/svg10.dtd">
<svg version="1.0" xmlns="http://www.w3.org/2000/svg"
 width="342.000000pt" height="342.000000pt" viewBox="0 0 342.000000 342.000000"
 preserveAspectRatio="xMidYMid meet">
<metadata>
Created by potrace 1.14, written by Peter Selinger 2001-2017
</metadata>
<g transform="translate(0.000000,342.000000) scale(0.100000,-0.100000)"
fill="#000000" stroke="none">
<path d="M0 1710 l0 -1710 1710 0 1710 0 0 1710 0 1710 -1710 0 -1710 0 0
-1710z m1965 1085 c407 -84 746 -344 930 -713 80 -159 135 -371 135 -519 l0
-63 -129 0 -128 0 -6 83 c-31 431 -341 810 -762 932 -358 103 -737 12 -1019
-246 -125 -114 -247 -317 -295 -489 -11 -41 -26 -121 -33 -177 l-12 -103 -129
0 -130 0 7 93 c37 492 345 924 797 1119 98 42 246 83 350 98 92 13 331 5 424
-15z m-17 -424 c279 -80 500 -281 604 -547 79 -204 78 -444 -2 -652 -84 -219
-268 -406 -494 -503 -121 -52 -189 -64 -351 -63 -132 1 -160 4 -238 27 -320
98 -554 342 -634 664 -26 103 -23 323 6 428 91 338 356 587 701 661 95 20 313
12 408 -15z"/>
<path d="M1565 2121 c-380 -94 -586 -483 -449 -849 106 -284 413 -455 714
-398 379 71 609 465 486 831 -105 309 -437 494 -751 416z"/>
</g>
</svg>
